<svg width="8204" height="6916" xmlns="http://www.w3.org/2000/svg">
    <g>
        <title>Layer 1</title>
        <path d="m8090.54,4693.24c0,568.57 -221.41,1103.13 -623.44,1505.2s-936.71,623.56 -1505.31,623.56l-3717.62,0c-568.62,0 -1103.19,-221.43 -1505.25,-623.5s-623.5,-936.64 -623.5,-1505.25l0,-2436.39c0,-568.62 221.43,-1103.21 623.51,-1505.27s936.59,-623.48 1505.24,-623.48l3717.62,0c568.57,0 1103.13,221.41 1505.2,623.43s623.55,936.74 623.55,1505.32l0,2436.38z" fill="#ddd"/>
        <path d="m4839.53,1008.11l0.24,20l0.24,20l-267.92,0l-0.24,-20l-0.25,-20l267.93,0z" fill="#fff" stroke="#333" stroke-miterlimit="10"/>
        <path d="m5131.57,1008.11l0.24,20l0.24,20l-267.05,0l-0.24,-20l-0.24,-20l267.05,0z" fill="#fff" stroke="#333" stroke-miterlimit="10"/>
        <path d="m4546.6,1008.11l0.24,20l0.25,20l-262.09,0l-0.24,-20l-0.24,-20l262.08,0z" fill="#fff" stroke="#333" stroke-miterlimit="10"/>
        <path d="m7179.27,2089.2l-19.87,2.37a1201.74,1201.74 0 0 0 -43.71,-196.57l19.21,-5.6l19.22,-5.61a1242.94,1242.94 0 0 1 45,203.05l-19.85,2.36z" fill="#fff" stroke="#333" stroke-miterlimit="10"/>
        <path d="m5414.52,1008.11l0.24,20l0.24,20l-257.95,0l-0.24,-20l-0.24,-20l257.95,0z" fill="#fff" stroke="#333" stroke-miterlimit="10"/>
        <path d="m6082.23,1013.83l-3.34,19.77l-3.35,19.78q-55,-5.1 -110.87,-5.25l1,-20l1,-20q58.25,0.24 115.56,5.7z" fill="#fff" stroke="#333" stroke-miterlimit="10"/>
        <path d="m5941.64,1008.11l-1,20l-1,20l-207.64,0l-0.24,-20l-0.24,-20l210.12,0z" fill="#fff" stroke="#333" stroke-miterlimit="10"/>
        <path d="m6216.64,1034l-5.32,19.34l-5.33,19.33q-52.15,-10.67 -105.53,-16.67l3.34,-19.75l3.35,-19.75q55.32,6.33 109.49,17.5z" fill="#fff" stroke="#333" stroke-miterlimit="10"/>
        <path d="m4259.52,1008.11l0.24,20l0.24,20l-314,0l0.25,-20l0.24,-20l313.03,0z" fill="#fff" stroke="#333" stroke-miterlimit="10"/>
        <path d="m5706.52,1008.11l0.24,20l0.24,20l-267,0l-0.24,-20l-0.24,-20l267,0z" fill="#fff" stroke="#333" stroke-miterlimit="10"/>
        <path d="m3071.36,1008.11l-0.24,20l-0.24,20l-226,0l0.24,-20l0.24,-20l226,0z" fill="#fff" stroke="#333" stroke-miterlimit="10"/>
        <path d="m1834.15,5873.43l6.86,-18.8l6.87,-18.8q47.3,16.36 96,28.75l-5.18,19.33l-5.19,19.32q-50.37,-12.84 -99.36,-29.8z" fill="#fff" stroke="#333" stroke-miterlimit="10"/>
        <path d="m6686,5710.88q-42.87,30.65 -87.94,57.42l-11,-16.72l-11,-16.72q43.31,-25.63 84.58,-55l12.72,15.51l12.64,15.51z" fill="#fff" stroke="#333" stroke-miterlimit="10"/>
        <path d="m3331.42,1008.11l-0.24,20l-0.24,20l-235.06,0l0.24,-20l0.25,-20l235.05,0z" fill="#fff" stroke="#333" stroke-miterlimit="10"/>
        <path d="m7210.54,2256.86l0,63.19l-40,0l0,-63.19a1228.07,1228.07 0 0 0 -8.05,-140.48l19.87,-2.37l19.86,-2.38a1269.69,1269.69 0 0 1 8.32,145.23z" fill="#fff" stroke="#333" stroke-miterlimit="10"/>
        <path d="m2095.62,5933.28l2.47,-19.85l2.47,-19.85a1230.12,1230.12 0 0 0 143.61,8.41l71.75,0l0.24,20l0.24,20l-72.23,0a1270.48,1270.48 0 0 1 -148.55,-8.71z" fill="#fff" stroke="#333" stroke-miterlimit="10"/>
        <path d="m1957.78,5909.17l5.19,-19.34l5.19,-19.33q53.13,12.34 107.6,19.91l-2.47,19.85l-2.47,19.85q-57.19,-7.89 -113.04,-20.94z" fill="#fff" stroke="#333" stroke-miterlimit="10"/>
        <path d="m2341.4,5942l-0.24,-20l-0.24,-20l202,0l0.24,20l0.24,20l-202,0z" fill="#fff" stroke="#333" stroke-miterlimit="10"/>
        <path d="m3921.44,1008.11l-0.25,20l-0.24,20l-262.08,0l0.24,-20l0.24,-20l262.09,0z" fill="#fff" stroke="#333" stroke-miterlimit="10"/>
        <path d="m3634.35,1008.11l-0.24,20l-0.24,20l-277.93,0l0.24,-20l0.25,-20l277.92,0z" fill="#fff" stroke="#333" stroke-miterlimit="10"/>
        <path d="m6216.64,5916.1q-54.12,11.16 -109.49,17.55l-3.35,-19.75l-3.34,-19.75q53.32,-6 105.53,-16.72l5.33,19.33l5.32,19.34z" fill="#fff" stroke="#333" stroke-miterlimit="10"/>
        <path d="m5731.52,5942l0.24,-20l0.24,-20l207.64,0l1,20l1,20l-210.12,0z" fill="#fff" stroke="#333" stroke-miterlimit="10"/>
        <path d="m5448.52,5942l0.24,-20l0.24,-20l258,0l-0.24,20l-0.24,20l-258,0z" fill="#fff" stroke="#333" stroke-miterlimit="10"/>
        <path d="m5156.57,5942l0.24,-20l0.24,-20l266.95,0l-0.24,20l-0.24,20l-266.95,0z" fill="#fff" stroke="#333" stroke-miterlimit="10"/>
        <path d="m7033.85,1655.35l-17.57,9.58q-27.68,-49.14 -60.08,-95.79l16.39,-11.48l16.38,-11.47q33.66,48.43 62.44,99.57l-17.56,9.59z" fill="#fff" stroke="#333" stroke-miterlimit="10"/>
        <path d="m6082.23,5936.27q-57.27,5.46 -115.56,5.69l-1,-20l-1,-20q55.88,-0.14 110.87,-5.25l3.35,19.78l3.34,19.78z" fill="#fff" stroke="#333" stroke-miterlimit="10"/>
        <path d="m6576.41,5780.89q-44.31,25.11 -90.41,46.47l-9.44,-17.68l-9.44,-17.68q44.46,-20.47 87.23,-44.6l11,16.75l11.06,16.74z" fill="#fff" stroke="#333" stroke-miterlimit="10"/>
        <path d="m6958.12,1537.27l-16.39,11.48q-32.13,-44.28 -68.5,-85.9l15.21,-13l15.21,-13q37.61,43.07 70.87,88.93l-16.4,11.49z" fill="#fff" stroke="#333" stroke-miterlimit="10"/>
        <path d="m6463.11,5837.65q-47.73,20.93 -97.13,37.78l-7.23,-18.68l-7.24,-18.68q47.1,-16 92.69,-35.83l9.45,17.7l9.46,17.71z" fill="#fff" stroke="#333" stroke-miterlimit="10"/>
        <path d="m6342.21,5883.27q-49.85,15.87 -101.1,27.52l-5.32,-19.3l-5.31,-19.31q49.26,-11.13 97.25,-26.3l7.24,18.7l7.24,18.69z" fill="#fff" stroke="#333" stroke-miterlimit="10"/>
        <path d="m1715.82,5825.41l7.72,-18.47l7.72,-18.48q45.71,21.44 93.08,39l-6.87,18.79l-6.86,18.79q-48.21,-17.84 -94.79,-39.63z" fill="#fff" stroke="#333" stroke-miterlimit="10"/>
        <path d="m4874.53,5942l0.24,-20l0.24,-20l257,0l-0.24,20l-0.24,20l-257,0z" fill="#fff" stroke="#333" stroke-miterlimit="10"/>
        <path d="m6576.42,1169.21l-11.05,16.79l-11.06,16.75q-42.74,-24.12 -87.23,-44.6l9.44,-17.68l9.44,-17.68q46.11,21.3 90.46,46.42z" fill="#fff" stroke="#333" stroke-miterlimit="10"/>
        <path d="m6686,1239.22l-12.71,15.5l-12.71,15.5q-41.25,-29.34 -84.59,-55l11,-16.71l11,-16.72q45.12,26.77 88.01,57.43z" fill="#fff" stroke="#333" stroke-miterlimit="10"/>
        <path d="m6342.21,1066.83l-7.24,18.69l-7.24,18.69q-48,-15.17 -97.25,-26.29l5.31,-19.31l5.32,-19.3q51.21,11.64 101.1,27.52z" fill="#fff" stroke="#333" stroke-miterlimit="10"/>
        <path d="m6463.11,1112.45l-9.45,17.7l-9.46,17.71q-45.57,-19.83 -92.69,-35.83l7.24,-18.68l7.23,-18.68q49.37,16.83 97.13,37.78z" fill="#fff" stroke="#333" stroke-miterlimit="10"/>
        <path d="m2568.4,5942l-0.24,-20l-0.24,-20l252,0l0.24,20l0.24,20l-252,0z" fill="#fff" stroke="#333" stroke-miterlimit="10"/>
        <path d="m2845.4,5942l-0.24,-20l-0.24,-20l226,0l0.24,20l0.24,20l-226,0z" fill="#fff" stroke="#333" stroke-miterlimit="10"/>
        <path d="m3356.43,5942l-0.25,-20l-0.24,-20l1494.06,0l-0.24,20l-0.24,20l-1493.09,0z" fill="#fff" stroke="#333" stroke-miterlimit="10"/>
        <path d="m3096.37,5942l-0.25,-20l-0.24,-20l235.06,0l0.24,20l0.24,20l-235.05,0z" fill="#fff" stroke="#333" stroke-miterlimit="10"/>
        <path d="m6871.82,1431.18l-15.22,13q-19.5,-21.43 -40.11,-42.06q-15.43,-15.43 -31.32,-30.22l13.82,-14.46l13.83,-14.45q16.2,15.1 32,30.84q21.73,21.74 42.27,44.35l-15.27,13z" fill="#fff" stroke="#333" stroke-miterlimit="10"/>
        <path d="m6780.53,1340.58l-13.83,14.47q-41.55,-37.17 -85.86,-70.11l12.7,-15.48l12.69,-15.49q45.45,33.88 88.12,72.15l-13.82,14.46z" fill="#fff" stroke="#333" stroke-miterlimit="10"/>
        <path d="m7210.54,3881.05l0,233l-40,0l0,-233l40,0z" fill="#fff" stroke="#333" stroke-miterlimit="10"/>
        <path d="m1411.46,5596.81l12.17,-16q36.88,34.17 76.09,64.92l-11.36,16.52l-11.36,16.53q-40,-31.24 -77.69,-66l12.15,-15.97z" fill="#fff" stroke="#333" stroke-miterlimit="10"/>
        <path d="m7199.13,4863.28a1241.67,1241.67 0 0 1 -45,203.05l-19.21,-5.61l-19.21,-5.6a1202.52,1202.52 0 0 0 43.7,-196.59l19.87,2.37l19.85,2.38z" fill="#fff" stroke="#333" stroke-miterlimit="10"/>
        <path d="m1178.12,1605.64a1250.48,1250.48 0 0 1 112.8,-155.57l14.19,14.2l14.2,14.19a1210.56,1210.56 0 0 0 -107.47,148.75l-16.84,-10.79l-16.88,-10.78z" fill="#fff" stroke="#333" stroke-miterlimit="10"/>
        <path d="m1361.17,1373.87q9.81,-9.81 19.8,-19.36l12.2,16l12.2,16q-8,7.73 -15.91,15.59q-27.93,27.93 -53.78,57.32l-14.17,-14.17l-14.17,-14.17q25.92,-29.28 53.83,-57.21z" fill="#fff" stroke="#333" stroke-miterlimit="10"/>
        <path d="m7045.9,5272.85l-17.56,-9.58a1192.83,1192.83 0 0 0 79.66,-184.36l19.22,5.61l19.23,5.61a1232.34,1232.34 0 0 1 -83,192.31l-17.55,-9.59z" fill="#fff" stroke="#333" stroke-miterlimit="10"/>
        <path d="m1834.14,1076.67q49,-17 99.35,-29.8l5.19,19.32l5.18,19.33q-48.64,12.38 -96,28.74l-6.87,-18.79l-6.85,-18.8z" fill="#fff" stroke="#333" stroke-miterlimit="10"/>
        <path d="m7210.54,2836.05l0,233l-40,0l0,-233l40,0z" fill="#fff" stroke="#333" stroke-miterlimit="10"/>
        <path d="m7051.42,5304.34q-28.76,51.09 -62.44,99.57l-16.39,-11.47l-16.39,-11.44q32.37,-46.61 60.09,-95.8l17.56,9.59l17.57,9.55z" fill="#fff" stroke="#333" stroke-miterlimit="10"/>
        <path d="m7210.54,2345.05l0,206l-40,0l0,-206l40,0z" fill="#fff" stroke="#333" stroke-miterlimit="10"/>
        <path d="m7210.54,4399.05l0,206l-40,0l0,-206l40,0z" fill="#fff" stroke="#333" stroke-miterlimit="10"/>
        <path d="m7210.54,2576.05l0,235l-40,0l0,-235l40,0z" fill="#fff" stroke="#333" stroke-miterlimit="10"/>
        <path d="m7210.54,4139.05l0,235l-40,0l0,-235l40,0z" fill="#fff" stroke="#333" stroke-miterlimit="10"/>
        <path d="m7210.54,4630.05l0,63.19a1269.56,1269.56 0 0 1 -8.32,145.23l-19.86,-2.37l-19.87,-2.38a1228.07,1228.07 0 0 0 8.05,-140.48l0,-63.19l40,0z" fill="#fff" stroke="#333" stroke-miterlimit="10"/>
        <path d="m7210.54,3357.05l0,236l-40,0l0,-236l40,0z" fill="#fff" stroke="#333" stroke-miterlimit="10"/>
        <path d="m1715.81,1124.68q46.56,-21.75 94.8,-39.59l6.86,18.8l6.87,18.79q-47.34,17.5 -93.08,39l-7.72,-18.48l-7.73,-18.52z" fill="#fff" stroke="#333" stroke-miterlimit="10"/>
        <path d="m7210.54,3618.05l0,238l-40,0l0,-238l40,0z" fill="#fff" stroke="#333" stroke-miterlimit="10"/>
        <path d="m6844.82,5576.21q-15.76,15.78 -32,30.9l-13.82,-14.45l-13.82,-14.46q15.9,-14.82 31.37,-30.27q20.6,-20.6 40.06,-42l15.22,13l15.21,13q-20.5,22.57 -42.22,44.28z" fill="#fff" stroke="#333" stroke-miterlimit="10"/>
        <path d="m1195,5333.68l16.86,-10.79a1209.43,1209.43 0 0 0 107.46,148.75l-14.19,14.2l-14.21,14.16a1250.48,1250.48 0 0 1 -112.8,-155.57l16.88,-10.75z" fill="#fff" stroke="#333" stroke-miterlimit="10"/>
        <path d="m2316.4,1008.11l-0.24,20l-0.24,20l-71.75,0a1230.12,1230.12 0 0 0 -143.61,8.41l-2.47,-19.85l-2.47,-19.85a1270.48,1270.48 0 0 1 148.55,-8.71l72.23,0z" fill="#fff" stroke="#333" stroke-miterlimit="10"/>
        <path d="m2543.4,1008.11l-0.24,20l-0.24,20l-202,0l0.24,-20l0.24,-20l202,0z" fill="#fff" stroke="#333" stroke-miterlimit="10"/>
        <path d="m1601.26,5764.34l11.36,-16.51l11.36,-16.51q41.48,24.89 84.73,46.27l-7.73,18.5l-7.73,18.5q-46.96,-23.13 -91.99,-50.25z" fill="#fff" stroke="#333" stroke-miterlimit="10"/>
        <path d="m2820.4,1008.11l-0.24,20l-0.24,20l-252,0l0.24,-20l0.24,-20l252,0z" fill="#fff" stroke="#333" stroke-miterlimit="10"/>
        <path d="m1496.88,5694l11.35,-16.49l11.35,-16.49q40.47,30.42 83.08,57.21l-11.36,16.5l-11.3,16.47q-42.59,-26.82 -83.12,-57.2z" fill="#fff" stroke="#333" stroke-miterlimit="10"/>
        <path d="m6794.35,5624q-42.63,38.24 -88.12,72.14l-12.7,-15.48l-12.69,-15.48q44.28,-32.91 85.85,-70.11l13.83,14.47l13.83,14.46z" fill="#fff" stroke="#333" stroke-miterlimit="10"/>
        <path d="m7210.54,3094.05l0,238l-40,0l0,-238l40,0z" fill="#fff" stroke="#333" stroke-miterlimit="10"/>
        <path d="m6974.52,5424.31q-33.24,45.82 -70.87,88.93l-15.21,-13l-15.21,-13q36.35,-41.6 68.51,-85.9l16.39,11.47l16.39,11.5z" fill="#fff" stroke="#333" stroke-miterlimit="10"/>
        <path d="m1499.72,1304.35q-39.17,30.74 -76.09,64.92l-12.17,-16l-12.16,-16q37.7,-34.71 77.69,-66l11.37,16.51l11.36,16.57z" fill="#fff" stroke="#333" stroke-miterlimit="10"/>
        <path d="m1968.16,1079.6l-5.19,-19.33l-5.19,-19.34q55.8,-13 113,-20.94l2.47,19.85l2.47,19.85q-54.4,7.55 -107.56,19.91z" fill="#fff" stroke="#333" stroke-miterlimit="10"/>
        <path d="m1708.71,1172.51q-43.21,21.39 -84.73,46.27l-11.37,-16.51l-11.35,-16.51q45,-27.12 92,-50.25l7.74,18.49l7.71,18.51z" fill="#fff" stroke="#333" stroke-miterlimit="10"/>
        <path d="m1602.65,1231.89q-42.57,26.77 -83.07,57.22l-11.35,-16.5l-11.35,-16.49q40.5,-30.37 83.07,-57.22l11.35,16.49l11.35,16.5z" fill="#fff" stroke="#333" stroke-miterlimit="10"/>
        <path d="m7028.33,1686.84l17.57,-9.59l17.56,-9.58a1233.23,1233.23 0 0 1 83,192.3l-19.23,5.61l-19.22,5.61a1192.77,1192.77 0 0 0 -79.68,-184.35z" fill="#fff" stroke="#333" stroke-miterlimit="10"/>
        <path d="m1393.17,5579.57l-12.2,16q-10,-9.57 -19.81,-19.36q-27.92,-27.91 -53.83,-57.27l14.17,-14.17l14.17,-14.17q25.86,29.39 53.78,57.32q7.89,7.89 15.91,15.6l-12.19,16.05z" fill="#fff" stroke="#333" stroke-miterlimit="10"/>
        <path d="m2708.48,2574l2789,0a80,80 0 0 1 80,80l0,1642.13a80,80 0 0 1 -80,80l-2789,0a80,80 0 0 1 -80,-80l0,-1642.13a80,80 0 0 1 80,-80z" data-original-fill="rgb(239, 173, 148)" fill=" rgb(153, 153, 153)"/>
        <path d="m2792.31,2737.8l2621.33,0l0,1474.5l-2621.33,0l0,-1474.5z" fill="#a4d899"/>
        <path d="m4096.42,4212.3l1317.22,0l0,-1474.5l-2621.33,0l0,1474.5l1304.11,0zm13.11,-969.8a232.64,232.64 0 0 1 0,465.1l0,-465.1zm0,478.21c132.7,-3.47 239.2,-112.13 239.2,-245.66s-106.5,-242.19 -239.2,-245.66l0,-478.48l1291,0l0,216.26l-478.4,0l0,308.44a262.08,262.08 0 0 0 0,398.88l0,308.44l478.4,0l0,216.26l-1291,0l0,-478.48zm1140.28,-507.79l0,524.26l150.73,0l0,232.65l-465.29,0l0,-989.56l465.29,0l0,232.65l-150.73,0zm150.73,13.1l0,498.06l-137.62,0l0,-498.08l137.62,0.02zm-478.4,67.16l0,363.74a251.31,251.31 0 0 1 -51.74,-68.58a249.53,249.53 0 0 1 0,-226.58a251.31,251.31 0 0 1 51.74,-68.58zm-825.72,414.42a232.64,232.64 0 0 1 0,-465.1l0,465.1zm-1140.28,29.58l0,-524.26l-150.72,0l0,-232.65l465.28,0l0,989.56l-465.28,0l0,-232.65l150.72,0zm-150.72,-13.1l0,-498.08l137.58,0l0,498.06l-137.58,0.02zm478.39,258.85l0,-308.44a262.08,262.08 0 0 0 0,-398.88l0,-308.44l-478.39,0l0,-216.26l1291,0l0,478.48c-132.69,3.47 -239.19,112.13 -239.19,245.66s106.5,242.19 239.19,245.66l0,478.48l-1291,0l0,-216.26l478.39,0zm0,-326l0,-363.75a251.34,251.34 0 0 1 51.75,68.58a249.61,249.61 0 0 1 0,226.58a251.34,251.34 0 0 1 -51.75,68.58l0,0.01z" fill="#fff"/>
        <text text-anchor="middle" x="4102.97998" y="3475.06494" is-stage-title="true" calss="disableSelect" font-size=" 30px" font-weight=" initial">比赛场</text>
        <path d="m5505,5862l0,-20l0,-20l0,-60l0,-20l0,-40l0,-20l0,-40l0,-20l432.59,0l1.89,20l1.89,20l1.89,20l1.88,20l1.89,20l1.89,20l1.88,20l1.89,20l1.89,20l1.88,20l1.89,20l1.89,20l-455.24,0z" fill="#fff" stroke="#333" stroke-miterlimit="10"/>
        <path d="m6422.33,5768.11c-136.54,58.53 -284.27,90.6 -436.8,93.62l-1.89,-20l-1.88,-20l-1.89,-20l-1.88,-20l-1.89,-20l-1.88,-20l-1.89,-20l-1.88,-20l-1.89,-20l-1.88,-20l-1.89,-20l-1.89,-20c127.93,-0.15 251.9,-26 366,-75.09l7.79,18.44l7.78,18.43l7.79,18.44l7.78,18.43l7.79,18.44l7.78,18.43l7.79,18.44l7.79,18.43l7.78,18.44l7.79,18.43l7.78,18.44l7.79,18.68z" fill="#fff" stroke="#333" stroke-miterlimit="10"/>
        <path d="m5013.52,5862l-0.1,-20l-0.09,-20l-0.1,-20l-0.09,-20l-0.1,-20l-0.09,-20l-0.1,-20l-0.09,-20l-0.1,-20l-0.09,-20l-0.1,-20l-0.09,-20l467.82,0l0,20l0,40l0,20l0,40l0,20l0,60l0,20l0,20l-466.68,0z" fill="#fff" stroke="#333" stroke-miterlimit="10"/>
        <path d="m1806.78,5535.67l9,-17.86c130.26,67.86 275.76,103.92 426.8,104.17l-1.79,20l-1.8,20l-1.8,20l-1.8,20l-1.8,20l-1.8,20l-1.8,20l-1.79,20l-1.8,20l-1.8,20l-1.79,20l-1.8,20c-181.55,-3.5 -356.28,-48.16 -513.47,-129.58l9,-17.86l9,-17.86l9,-17.86l9,-17.86l9,-17.87l9,-17.86l9,-17.86l9,-17.87l9,-17.86l9,-17.86l9.24,-18.11z" fill="#fff" stroke="#333" stroke-miterlimit="10"/>
        <path d="m5480,1088.11l0,20l0,20l0,60l0,20l0,40l0,20l0,40l0,20l-467.62,0l0.09,-20l0.1,-20l0.09,-20l0.1,-20l0.09,-20l0.1,-20l0.09,-20l0.1,-20l0.09,-20l0.1,-20l0.09,-20l0.1,-20l466.48,0z" fill="#fff" stroke="#333" stroke-miterlimit="10"/>
        <path d="m1274.38,5309.71l16.41,-11.47l16.41,-11.47l16.41,-11.47l16.41,-11.47l16.42,-11.48l16.42,-11.48l16.42,-11.48l16.42,-11.48l16.42,-11.47l16.42,-11.48l16.42,-11.48a940.33,940.33 0 0 0 338.82,322.46l-9,17.88l-9,17.88l-9,17.87l-9,17.88l-9,17.88l-9,17.87l-9,17.87l-9,17.87l-9,17.86l-9,17.87l-9,17.87l-9,17.87a1183.25,1183.25 0 0 1 -427.78,-399.23l16.38,-11.47z" fill="#fff" stroke="#333" stroke-miterlimit="10"/>
        <path d="m7130.54,2950.05l0,512.5l-240,0l0,-512.5l240,0z" fill="#fff" stroke="#333" stroke-miterlimit="10"/>
        <path d="m7088,1942.38a1174.17,1174.17 0 0 1 42.58,314.48l0,141.74l-20,1.13l-20,1.13l-20,1.13l-20,1.13l-20,1.13l-20,1.13l-20,1.13l-20,1.13l-20,1.13l-20,1.13l-20,1.13l-20,1.13l0,-155.3a934.26,934.26 0 0 0 -31.49,-241.29l19.07,-6.1l19.08,-6.1l19.08,-6.1l19.08,-6.1l19.08,-6.1l19.07,-6.1l19.08,-6.1l19.08,-6.1l19.08,-6.1l19.08,-6.1l19.07,-6.09l19.06,-6.1z" fill="#fff" stroke="#333" stroke-miterlimit="10"/>
        <path d="m3590.86,5622l1024.23,0l0,20l0,20l0,20l0,20l0,20l0,20l0,20l0,20l0,20l0,20l0,20l0,20l-1023.8,0l0,-20l0,-20l0,-20l0,-20l0,-20l0,-20l0,-20l0,-20l0,-20l0,-20l0,-20l-0.43,-20z" fill="#fff" stroke="#333" stroke-miterlimit="10"/>
        <path d="m1716.58,1235.8l-9,-17.86c157.18,-81.42 331.92,-126.08 513.47,-129.58l1.8,20l1.79,20l1.8,20l1.8,20l1.79,20l1.8,20l1.8,20l1.8,20l1.8,20l1.8,20l1.8,20l1.79,20c-151,0.25 -296.55,36.31 -426.8,104.17l-9,-17.86l-9,-17.87l-9,-17.86l-9,-17.86l-9,-17.87l-9,-17.86l-9,-17.86l-9,-17.87l-9,-17.86l-9,-17.86l-9.24,-18.1z" fill="#fff" stroke="#333" stroke-miterlimit="10"/>
        <path d="m6422.33,1182l-7.78,18.43l-7.79,18.44l-7.79,18.43l-7.78,18.44l-7.79,18.43l-7.78,18.44l-7.79,18.43l-7.79,18.44l-7.78,18.43l-7.79,18.44l-7.78,18.43l-7.79,18.44c-114.1,-49.1 -238.07,-74.94 -366,-75.09l1.89,-20l1.89,-20l1.88,-20l1.89,-20l1.88,-20l1.89,-20l1.88,-20l1.89,-20l1.88,-20l1.89,-20l1.88,-20l1.89,-20c152.54,3.26 300.26,35.33 436.8,93.87z" fill="#fff" stroke="#333" stroke-miterlimit="10"/>
        <path d="m3217.44,5862l0.09,-20l0.1,-20l0.09,-20l0.1,-20l0.09,-20l0.1,-20l0.09,-20l0.1,-20l0.09,-20l0.1,-20l0.09,-20l0.1,-20l347.28,0l0,20l0,20l0,20l0,20l0,20l0,20l0,20l0,20l0,20l0,20l0,20l0,20l-348.42,0z" fill="#fff" stroke="#333" stroke-miterlimit="10"/>
        <path d="m5960.44,1088.11l-1.89,20l-1.89,20l-1.88,20l-1.89,20l-1.89,20l-1.88,20l-1.89,20l-1.89,20l-1.88,20l-1.89,20l-1.89,20l-1.89,20l-432.59,0l0,-20l0,-40l0,-20l0,-40l0,-20l0,-60l0,-20l0,-20l455.24,0z" fill="#fff" stroke="#333" stroke-miterlimit="10"/>
        <path d="m3599.48,1088.11l0.09,20l0.1,20l0.09,20l0.1,20l0.09,20l0.1,20l0.09,20l0.1,20l0.09,20l0.1,20l0.09,20l0.1,20l-382,0l-0.1,-20l-0.09,-20l-0.1,-20l-0.09,-20l-0.1,-20l-0.09,-20l-0.1,-20l-0.09,-20l-0.1,-20l-0.09,-20l-0.1,-20l-0.09,-20l382,0z" fill="#fff" stroke="#333" stroke-miterlimit="10"/>
        <path d="m6834.85,1479.81c114.31,128.11 197.64,277.36 246.16,438.55l-19.06,6.09l-19.06,6.1l-19.07,6.09l-19.06,6.1l-19.06,6.09l-19.07,6.1l-19.06,6.09l-19.06,6.1l-19.06,6.09l-19.07,6.09l-19.06,6.1l-19.06,6.09a921.17,921.17 0 0 0 -191.3,-346l14.5,-13.81l14.49,-13.81l14.5,-13.81l14.49,-13.81l14.5,-13.81l14.49,-13.8l14.49,-13.81l14.48,-13.8l14.49,-13.8l14.49,-13.8l14.48,-13.81l14.49,-13.81z" fill="#fff" stroke="#333" stroke-miterlimit="10"/>
        <path d="m1315.42,3487.55l0,509.5l-240,0l0,-509.5l240,0z" fill="#fff" stroke="#333" stroke-miterlimit="10"/>
        <path d="m2725.92,5862l0,-20l0,-40l0,-20l0,-40l0,-20l0,-40l0,-20l0,-40l467.82,0l-0.1,20l-0.09,20l-0.1,20l-0.09,20l-0.1,20l-0.09,20l-0.1,20l-0.09,20l-0.1,20l-0.09,20l-0.1,20l-0.09,20l-466.68,0z" fill="#fff" stroke="#333" stroke-miterlimit="10"/>
        <path d="m7130.54,4551.5l0,141.74a1174.57,1174.57 0 0 1 -42.54,314.48l-19.07,-6.1l-19.07,-6.09l-19.08,-6.1l-19.08,-6.1l-19.08,-6.1l-19.08,-6.1l-19.07,-6.1l-19.08,-6.1l-19.08,-6.1l-19.08,-6.1l-19.08,-6.1l-19.07,-6.1a934.26,934.26 0 0 0 31.49,-241.29l0,-155.3l20,1.13l20,1.13l20,1.13l20,1.13l20,1.13l20,1.13l20,1.13l20,1.13l20,1.13l20,1.13l20,1.13l19.97,1.13z" fill="#fff" stroke="#333" stroke-miterlimit="10"/>
        <path d="m7130.54,4025.05l0,501.41l-20,-1.13l-20,-1.13l-20,-1.13l-20,-1.13l-20,-1.13l-20,-1.13l-20,-1.13l-20,-1.13l-20,-1.13l-20,-1.13l-20,-1.13l-20,-1.13l0,-487.85l240,0z" fill="#fff" stroke="#333" stroke-miterlimit="10"/>
        <path d="m6788.25,5519.65c-100.88,100.87 -217,181 -343.05,238.35l-7.79,-18.44l-7.79,-18.44l-7.79,-18.44l-7.78,-18.44l-7.79,-18.44l-7.79,-18.44l-7.79,-18.44l-7.79,-18.45l-7.79,-18.47l-7.79,-18.45l-7.79,-18.45l-7.79,-18.44a929.28,929.28 0 0 0 266.8,-186.66q13.16,-13.15 25.7,-26.74l14.48,13.8l14.49,13.8l14.48,13.8l14.48,13.79l14.49,13.8l14.48,13.8l14.48,13.8l14.49,13.8l14.48,13.79l14.48,13.8l14.48,13.8l14.48,13.79q-14.56,15.61 -29.77,30.82z" fill="#fff" stroke="#333" stroke-miterlimit="10"/>
        <path d="m7081,5031.74c-48.53,161.2 -131.86,310.45 -246.17,438.55l-14.48,-13.8l-14.49,-13.8l-14.49,-13.81l-14.49,-13.8l-14.48,-13.8l-14.49,-13.8l-14.49,-13.81l-14.5,-13.81l-14.49,-13.81l-14.5,-13.81l-14.49,-13.81l-14.44,-13.81a921.29,921.29 0 0 0 191.29,-346l19.06,6.09l19.06,6.1l19.07,6.09l19.06,6.1l19.06,6.09l19.07,6.1l19.06,6.09l19.06,6.1l19.07,6.09l19.06,6.1l19.06,6.09l19.02,6.08z" fill="#fff" stroke="#333" stroke-miterlimit="10"/>
        <path d="m3192.44,1088.11l0.09,20l0.1,20l0.09,20l0.1,20l0.09,20l0.1,20l0.09,20l0.1,20l0.09,20l0.1,20l0.09,20l0.1,20l-467.82,0l0,-40l0,-20l0,-40l0,-20l0,-40l0,-20l0,-40l0,-20l466.68,0z" fill="#fff" stroke="#333" stroke-miterlimit="10"/>
        <path d="m2700.83,5842.16l0,20l-454.81,-0.34l1.81,-20l1.82,-20l1.81,-20l1.82,-20l1.81,-20l1.82,-20l1.81,-20l1.82,-20l1.81,-20l1.82,-20l1.81,-20l1.81,-20l433.06,0.33l0,220l-0.02,0.01z" fill="#fff" stroke="#333" stroke-miterlimit="10"/>
        <path d="m4581.48,1088.11l-0.1,20l-0.09,20l-0.1,20l-0.09,20l-0.1,20l-0.09,20l-0.1,20l-0.09,20l-0.1,20l-0.09,20l-0.1,20l-0.09,20l-465.34,0l0,-240l466.48,0z" fill="#fff" stroke="#333" stroke-miterlimit="10"/>
        <path d="m7130.54,2423.64l0,501.41l-240,0l0,-487.85l20,-1.13l20,-1.13l20,-1.13l20,-1.13l20,-1.13l20,-1.13l20,-1.13l20,-1.13l20,-1.13l20,-1.13l20,-1.13l20,-1.13z" fill="#fff" stroke="#333" stroke-miterlimit="10"/>
        <path d="m4639.74,5862l0,-20l0,-20l0,-20l0,-20l0,-20l0,-20l0,-20l0,-20l0,-20l0,-20l0,-20l0,-20l347.29,0l0.09,20l0.1,20l0.09,20l0.1,20l0.09,20l0.1,20l0.09,20l0.1,20l0.09,20l0.1,20l0.09,20l0.1,20l-348.43,0z" fill="#fff" stroke="#333" stroke-miterlimit="10"/>
        <path d="m1315.42,2940.05l0,522.5l-240,0l0,-522.5l240,0z" fill="#fff" stroke="#333" stroke-miterlimit="10"/>
        <path d="m1075.42,2915.05l0,-516.47l20,1.88l20,1.87l20,1.88l20,1.88l20,1.88l20,1.88l20,1.88l20,1.88l20,1.88l20,1.88l20,1.88l20,1.88l0,493.92l-240,0z" fill="#fff" stroke="#333" stroke-miterlimit="10"/>
        <path d="m2700.92,1088.11l0,20l0,40l0,20l0,40l0,20l0,40l0,20l0,40l-433.22,0l-1.8,-20l-1.8,-20l-1.8,-20l-1.79,-20l-1.8,-20l-1.8,-20l-1.8,-20l-1.8,-20l-1.8,-20l-1.8,-20l-1.8,-20l-1.8,-20l454.81,0z" fill="#fff" stroke="#333" stroke-miterlimit="10"/>
        <path d="m1075.42,2256.86l0,116.61l20,1.88l20,1.87l20,1.88l20,1.88l20,1.88l20,1.88l20,1.88l20,1.88l20,1.88l20,1.88l20,1.88l20,1.88l0,-0.09l60,5.72l20,1.88l20,1.88l20,1.88l20,1.88l20,1.88l20,1.88l20,1.88l20,1.88l20,1.88l20,1.88l20,1.88l20,1.87l20,1.88l20,1.88l20,1.88l20,1.88l20,1.88l20,1.88l20,1.88l20,1.88l20,1.88l20,1.88l20,1.88l20,1.87l20,1.88l20,1.88l20,1.88l20,1.88l20,1.88l20,1.88l20,1.88l20,1.88l20,1.88l0,-206.81a211,211 0 0 1 2.91,-34.94l-18,-12.56l-17.7,-12.38l-17.49,-12.22l-17.32,-12.11l-17.19,-12l-17.08,-11.94l-17,-11.89l-16.94,-11.82l-16.88,-11.8l-16.83,-11.76l-16.79,-11.73l-16.75,-11.71l-16.72,-11.69l-16.64,-11.7l-16.72,-11.61l-16.65,-11.64l-16.63,-11.66l-16.61,-11.61l-16.6,-11.6l-16.58,-11.59l-16.57,-11.59l-16.56,-11.57l-16.56,-11.57l-16.52,-11.56l-16.53,-11.55l-16.53,-11.56l-16.54,-11.5l-16.51,-11.53l-16.5,-11.54l-16.5,-11.54l-16.51,-11.53l-16.48,-11.52l-16.48,-11.52l-58.94,-41.22l0,0l-7,-4.88l-16.46,-11.5l-16.47,-11.51l-16.46,-11.51l-16.46,-11.5l-16.47,-11.51l-16.46,-11.51l-16.45,-11.49l-16.44,-11.5l-16.45,-11.49l-16.44,-11.5l-16.45,-11.49c-105.66,178.15 -162.05,382.06 -162.05,594.65z" fill="#fff" stroke="#333" stroke-miterlimit="10"/>
        <path d="m4090,1088.11l0,240l-464.38,0l-0.1,-20l-0.09,-20l-0.1,-20l-0.09,-20l-0.1,-20l-0.09,-20l-0.1,-20l-0.09,-20l-0.1,-20l-0.09,-20l-0.1,-20l-0.09,-20l465.52,0z" fill="#fff" stroke="#333" stroke-miterlimit="10"/>
        <path d="m1315.42,4571.21l-160,14.91l-20,1.88l-20,1.88l-20,1.88l-20,1.87l0,99.61c0,217.38 59,425.7 169.3,606.71l796.65,-556.9a210.56,210.56 0 0 1 -6,-49.81l0,-189.81l-719.95,67.78z" fill="#fff" stroke="#333" stroke-miterlimit="10"/>
        <path d="m1315.42,4022.05l0,523.95l-20,1.88l-20,1.88l-20,1.88l-20,1.88l-20,1.88l-20,1.88l-20,1.88l-20,1.88l-20,1.88l-20,1.88l-20,1.88l-20,1.87l0,-546.5l240,0z" fill="#fff" stroke="#333" stroke-miterlimit="10"/>
        <path d="m4988.52,1088.11l-0.1,20l-0.09,20l-0.1,20l-0.09,20l-0.1,20l-0.09,20l-0.1,20l-0.09,20l-0.1,20l-0.09,20l-0.1,20l-0.09,20l-382,0l0.09,-20l0.1,-20l0.09,-20l0.1,-20l0.09,-20l0.1,-20l0.09,-20l0.1,-20l0.09,-20l0.1,-20l0.09,-20l0.1,-20l382,0z" fill="#fff" stroke="#333" stroke-miterlimit="10"/>
        <path d="m1250.5,1640.77a1183.33,1183.33 0 0 1 435,-411.08l9,17.87l9,17.87l9,17.86l9,17.87l9,17.87l9,17.87l9,17.87l9,17.88l9,17.88l9,17.87l9,17.88l9,17.88a940.24,940.24 0 0 0 -346.15,334.39l-16.43,-11.48l-16.43,-11.49l-16.43,-11.48l-16.44,-11.49l-16.43,-11.48l-16.19,-11.49l-16.43,-11.48l-16.43,-11.48l-16.42,-11.48l-16.42,-11.48l-16.42,-11.48l-16.38,-11.47z" fill="#fff" stroke="#333" stroke-miterlimit="10"/>
        <path d="m7130.54,3487.55l0,512.5l-240,0l0,-512.5l240,0z" fill="#fff" stroke="#333" stroke-miterlimit="10"/>
        <path d="m6658.72,1613.09l-14.49,13.8q-12.57,-13.59 -25.73,-26.77a929,929 0 0 0 -266.77,-186.71l7.79,-18.45l7.79,-18.44l7.79,-18.45l7.79,-18.44l7.79,-18.45l7.79,-18.44l7.79,-18.44l7.79,-18.44l7.78,-18.44l7.79,-18.44l7.79,-18.44l7.79,-18.44c126.08,57.31 242.14,137.45 343,238.3q15.23,15.24 29.82,30.92l-14.48,13.79l-14.48,13.8l-14.48,13.8l-14.48,13.79l-14.49,13.8l-14.48,13.8l-14.48,13.8l-14.49,13.8l-14.48,13.8l-14.48,13.79l-14.48,13.8z" fill="#fff" stroke="#333" stroke-miterlimit="10"/>
        <path d="m6993.54,1327.23l-15.21,13l-15.22,13l-15.21,13l-15.21,13l-15.22,13q-21.55,-23.78 -44.42,-46.65q-16.06,-16.05 -32.59,-31.47l13.82,-14.45l13.82,-14.46l13.83,-14.46l13.82,-14.45l13.82,-14.46l13.82,-14.45q17.49,16.35 34.51,33.35q26.2,26.2 50.85,53.54l-15.21,12.96z" fill="#fff" stroke="#333" stroke-miterlimit="10"/>
        <path d="m6787.69,1115.22l-12.69,15.49l-12.7,15.49l-12.71,15.5l-12.71,15.51l-12.72,15.5l-12.71,15.5q-44.51,-31.95 -91.3,-59.85l11,-16.72l11,-16.72l11,-16.72l11,-16.71l11,-16.71l11,-16.71q52.13,31.26 101.54,67.15z" fill="#fff" stroke="#333" stroke-miterlimit="10"/>
        <path d="m2570.34,6102l-0.25,-20l-0.24,-20l-0.24,-20l-0.24,-20l-0.24,-20l-0.24,-20l252,0l0.25,20l0.24,20l0.24,20l0.24,20l0.24,20l0.24,20l-252,0z" fill="#fff" stroke="#333" stroke-miterlimit="10"/>
        <path d="m7156.8,1588.25l-17.57,9.58l-17.56,9.59l-17.57,9.58l-17.56,9.59q-29.82,-53 -64.79,-103.34l16.39,-11.47l16.39,-11.48l16.39,-11.47l16.39,-11.47l16.38,-11.47l16.39,-11.48q38.79,55.75 71.84,114.67l-17.56,9.58l-17.56,9.59z" fill="#fff" stroke="#333" stroke-miterlimit="10"/>
        <path d="m6109,855.69l-3.34,19.76l-3.35,19.76l-3.31,19.79l-3.35,19.77l-3.34,19.76l-3.35,19.77q-59.6,-5.81 -120.25,-6.12l1,-20l1,-20l1,-20l1,-20l1,-20l1,-20q67.7,0.61 134.29,7.51z" fill="#fff" stroke="#333" stroke-miterlimit="10"/>
        <path d="m6905,5739.69q-47,42.5 -97.19,80.28l-12.69,-15.48l-12.72,-15.49l-12.69,-15.48l-12.7,-15.48l-12.69,-15.48l-12.7,-15.48q46.6,-34.86 90.39,-74.18l13.83,14.46l13.83,14.47l13.83,14.46l13.83,14.46l13.82,14.47l13.85,14.47z" fill="#fff" stroke="#333" stroke-miterlimit="10"/>
        <path d="m6538.72,970.86l-9.45,17.7l-9.44,17.69l-9.45,17.69l-9.45,17.69l-9.45,17.7l-9.48,17.67q-49.89,-22 -101.57,-39.71l7.24,-18.68l7.24,-18.68l7.23,-18.67l7.23,-18.66l7.23,-18.67l7.23,-18.67q58.46,20.25 114.89,45.6z" fill="#fff" stroke="#333" stroke-miterlimit="10"/>
        <path d="m6259.19,879.39l-5.31,19.32l-5.32,19.29l-5.32,19.32l-5.32,19.33l-5.32,19.35l-5.32,19.33q-56.07,-11.69 -113.45,-18.39l3.34,-19.74l3.35,-19.75l3.34,-19.75l3.34,-19.7l3.34,-19.75l3.35,-19.75q63.35,7.64 125.3,20.89z" fill="#fff" stroke="#333" stroke-miterlimit="10"/>
        <path d="m1510.38,5896.41l11.36,-16.51l11.36,-16.51l11.36,-16.51l11.36,-16.51l11.36,-16.5l11.36,-16.51q48.48,29.36 99.24,54.23l-7.73,18.5l-7.73,18.5l-7.72,18.48l-7.73,18.49l-7.73,18.49l-7.72,18.49q-62.01,-30 -121.04,-66.13z" fill="#fff" stroke="#333" stroke-miterlimit="10"/>
        <path d="m7370.54,3881.05l0,233l-120,0l0,-233l120,0z" fill="#fff" stroke="#333" stroke-miterlimit="10"/>
        <path d="m5129.63,848.11l0.24,20l0.25,20l0.24,20l0.24,20l0.24,20l0.24,20l-267,0l-0.24,-20l-0.25,-20l-0.24,-20l-0.24,-20l-0.24,-20l-0.24,-20l267,0z" fill="#fff" stroke="#333" stroke-miterlimit="10"/>
        <path d="m1779.2,6023.8l6.87,-18.8l6.86,-18.8l6.87,-18.79l6.87,-18.8l6.87,-18.79l6.87,-18.8q50.61,17.56 102.71,30.86l-5.18,19.33l-5.19,19.32l-5.18,19.33l-5.19,19.33l-5.19,19.32l-5.18,19.33q-57.19,-14.65 -112.81,-34.04z" fill="#fff" stroke="#333" stroke-miterlimit="10"/>
        <path d="m7250.54,2320.05l0,-63.19a1310.88,1310.88 0 0 0 -8.6,-150l19.86,-2.38l19.86,-2.37l19.86,-2.37l19.86,-2.37l19.87,-2.38l19.86,-2.37a1433.31,1433.31 0 0 1 9.43,164.21l0,63.19l-120,0l0,0.03z" fill="#fff" stroke="#333" stroke-miterlimit="10"/>
        <path d="m5412.58,848.11l0.25,20l0.24,20l0.24,20l0.24,20l0.24,20l0.24,20l-257.95,0l-0.24,-20l-0.24,-20l-0.24,-20l-0.24,-20l-0.25,-20l-0.24,-20l257.95,0z" fill="#fff" stroke="#333" stroke-miterlimit="10"/>
        <path d="m4576.99999,5981.99992l0,122.00014l271.99996,0l0,-122.00014l-271.99996,0z" currenttotalrotation="0" totalrotation="0" currentrotation="0" rotation="0" lastrotation="0" data-height="122" data-width="272" data-y="5982" data-x="4577" data-cy="6037.88916" data-cx="4713" fill="#FFFFFF" stroke="#333" stroke-miterlimit="10"/>
        <path d="m7250.54,3069.05l0,-233l120,0l0,233l-120,0z" fill="#fff" stroke="#333" stroke-miterlimit="10"/>
        <path d="m1510.38,1053.69q59,-36.12 121,-66.13l7.72,18.49l7.73,18.49l7.72,18.48l7.73,18.49l7.73,18.5l7.73,18.5q-50.71,24.85 -99.24,54.23l-11.36,-16.51l-11.36,-16.51l-11.36,-16.5l-11.36,-16.51l-11.36,-16.51l-11.32,-16.51z" fill="#fff" stroke="#333" stroke-miterlimit="10"/>
        <path d="m1406.08,1124.17q40.62,-30.18 83.07,-57.22l11.35,16.49l11.35,16.49l11.34,16.49l11.35,16.49l11.35,16.49l11.36,16.5q-42.52,26.88 -83.07,57.23l-11.35,-16.49l-11.35,-16.5l-11.35,-16.49l-11.35,-16.49l-11.35,-16.5l-11.35,-16.49z" fill="#fff" stroke="#333" stroke-miterlimit="10"/>
        <path d="m1779.2,926.3q55.58,-19.37 112.81,-34l5.18,19.33l5.19,19.32l5.18,19.33l5.19,19.32l5.18,19.33l5.19,19.33q-52.06,13.29 -102.71,30.86l-6.87,-18.8l-6.87,-18.79l-6.87,-18.8l-6.87,-18.8l-6.87,-18.79l-6.86,-18.84z" fill="#fff" stroke="#333" stroke-miterlimit="10"/>
        <path d="m1654,976.86q50,-23.07 101.62,-42.12l6.87,18.79l6.87,18.79l6.86,18.8l6.87,18.79l6.87,18.8l6.87,18.79q-49.06,18.12 -96.5,40.23l-7.72,-18.48l-7.72,-18.48l-7.72,-18.48l-7.73,-18.47l-7.72,-18.48l-7.72,-18.48z" fill="#fff" stroke="#333" stroke-miterlimit="10"/>
        <path d="m4257.58,848.11l0.25,20l0.24,20l0.24,20l0.24,20l0.24,20l0.24,20l-312.11,0l0.24,-20l0.24,-20l0.25,-20l0.24,-20l0.24,-20l0.24,-20l309.21,0z" fill="#fff" stroke="#333" stroke-miterlimit="10"/>
        <path d="m3073.3,848.11l-0.24,20l-0.25,20l-0.24,20l-0.24,20l-0.24,20l-0.24,20l-226,0l0.24,-20l0.24,-20l0.24,-20l0.24,-20l0.24,-20l0.25,-20l226,0z" fill="#fff" stroke="#333" stroke-miterlimit="10"/>
        <path d="m7250.54,2811.05l0,-235l120,0l0,235l-120,0z" fill="#fff" stroke="#333" stroke-miterlimit="10"/>
        <path d="m7370.54,2345.05l0,206l-120,0l0,-206l120,0z" fill="#fff" stroke="#333" stroke-miterlimit="10"/>
        <path d="m5729.58,6102l0.25,-20l0.24,-20l0.24,-20l0.24,-20l0.24,-20l0.24,-20l212.62,0l1,20l1,20l1,20l1,20l1,20l1,20l-220.07,0z" fill="#fff" stroke="#333" stroke-miterlimit="10"/>
        <path d="m3304.42371,6102l-0.07012,-20l-0.07013,-20l-0.07305,-20l-0.07013,-20l-0.07013,-20l-0.07012,-20l436.00003,0l-0.07305,20l-0.07013,20l-0.07013,20l-0.07012,20l-0.07013,20l-0.07013,20l-435.15266,0z" data-cx="3548.45496" data-cy="6042" data-x="3304" data-y="5982" data-width="436" data-height="120" lastrotation="0" rotation="0" currentrotation="0" totalrotation="0" currenttotalrotation="0" fill="#fff" stroke="#333" stroke-miterlimit="10"/>
        <path d="m2318.33,848.11l-0.24,20l-0.24,20l-0.24,20l-0.24,20l-0.24,20l-0.25,20l-72.71,0a1310.85,1310.85 0 0 0 -153.49,9l-2.47,-19.85l-2.47,-19.85l-2.47,-19.85l-2.47,-19.85l-2.47,-19.85l-2.47,-19.86a1432.1,1432.1 0 0 1 168.31,-9.91l74.16,0.02z" fill="#fff" stroke="#333" stroke-miterlimit="10"/>
        <path d="m6664.76,5914.73q-50.57,29.2 -103.28,54.05l-9.48,-17.68l-9.44,-17.68l-9.44,-17.68l-9.44,-17.67l-9.44,-17.68l-9.44,-17.68q47.74,-22.2 93.66,-48.36l11,16.73l11.05,16.73l11,16.73l11,16.73l11,16.73l11.25,16.73z" fill="#fff" stroke="#333" stroke-miterlimit="10"/>
        <path d="m3923.37,848.11l-0.24,20l-0.24,20l-0.25,20l-0.24,20l-0.24,20l-0.24,20l-262.08,0l0.24,-20l0.24,-20l0.24,-20l0.24,-20l0.25,-20l0.24,-20l262.08,0z" fill="#fff" stroke="#333" stroke-miterlimit="10"/>
        <path d="m2545.33,848.11l-0.24,20l-0.24,20l-0.24,20l-0.24,20l-0.24,20l-0.25,20l-202,0l0.24,-20l0.24,-20l0.24,-20l0.24,-20l0.24,-20l0.25,-20l202,0z" fill="#fff" stroke="#333" stroke-miterlimit="10"/>
        <path d="m6664.76,1035.36l-11,16.73l-11.05,16.73l-11,16.73l-11,16.73l-11,16.74l-11.05,16.73q-45.87,-26.16 -93.66,-48.36l9.44,-17.68l9.44,-17.68l9.44,-17.68l9.44,-17.67l9.24,-17.68l9.44,-17.68q52.72,24.81 103.32,54.04z" fill="#fff" stroke="#333" stroke-miterlimit="10"/>
        <path d="m4837.6,848.11l0.24,20l0.24,20l0.24,20l0.24,20l0.24,20l0.25,20l-267.93,0l-0.24,-20l-0.24,-20l-0.25,-20l-0.24,-20l-0.24,-20l-0.24,-20l267.93,0z" fill="#fff" stroke="#333" stroke-miterlimit="10"/>
        <path d="m7250.54,3332.05l0,-238l120,0l0,238l-120,0z" fill="#fff" stroke="#333" stroke-miterlimit="10"/>
        <path d="m7258.72,2079.7l-19.86,2.38a1282.78,1282.78 0 0 0 -46.32,-209.52l19.21,-5.6l19.21,-5.61l19.21,-5.6l19.21,-5.6l19.21,-5.61l19.21,-5.6a1400.52,1400.52 0 0 1 50.23,228.9l-19.86,2.37l-19.86,2.37l-19.86,2.38l-19.87,2.37l-19.86,2.37z" fill="#fff" stroke="#333" stroke-miterlimit="10"/>
        <path d="m7250.54,4374.05l0,-235l120,0l0,235l-120,0z" fill="#fff" stroke="#333" stroke-miterlimit="10"/>
        <path d="m7250.54,3856.05l0,-238l120,0l0,238l-120,0z" fill="#fff" stroke="#333" stroke-miterlimit="10"/>
        <path d="m3333.36,848.11l-0.24,20l-0.25,20l-0.24,20l-0.24,20l-0.24,20l-0.24,20l-235.06,0l0.24,-20l0.24,-20l0.24,-20l0.25,-20l0.24,-20l0.24,-20l235.06,0z" fill="#fff" stroke="#333" stroke-miterlimit="10"/>
        <path d="m1926.65,924.92l-5.18,-19.34l-5.19,-19.33q66.48,-15.78 134.78,-25.09l2.47,19.85l2.47,19.86l2.47,19.85l2.47,19.85l2.47,19.86l2.47,19.85q-60,8.25 -118.47,22l-5.19,-19.34l-5.22,-19.35l-5.19,-19.34l-5.16,-19.33z" fill="#fff" stroke="#333" stroke-miterlimit="10"/>
        <path d="m7089.25,1445.48l-16.39,11.52l-16.39,11.48l-16.39,11.47l-16.39,11.47l-16.39,11.48q-34.34,-47.4 -73.23,-92l15.21,-13l15.21,-13l15.21,-13l15.21,-13l15.21,-13l15.21,-13q42.63,48.93 80.31,101.06l-16.39,11.52z" fill="#fff" stroke="#333" stroke-miterlimit="10"/>
        <path d="m6400.13,917.32l-7.24,18.68l-7.24,18.69l-7.24,18.69l-7.24,18.69l-7.24,18.69l-7.24,18.69q-51.73,-16.59 -104.95,-28.77l5.31,-19.3l5.31,-19.31l5.32,-19.31l5.31,-19.3l5.32,-19.31l5.31,-19.31q59.05,13.75 116.51,32.48z" fill="#fff" stroke="#333" stroke-miterlimit="10"/>
        <path d="m1208.16,5618.14l14.17,-14.16l14.16,-14.16l14.16,-14.17l14.17,-14.17l14.17,-14.17q26,29.28 53.89,57.21q11.73,11.73 23.7,23.11l-12.18,16l-12.18,16l-12.18,16l-12.18,16l-12.18,16l-12.18,16q-18,-16.79 -35.47,-34.26q-27.9,-27.9 -54,-57.07l14.13,-14.16z" fill="#fff" stroke="#333" stroke-miterlimit="10"/>
        <path d="m1127.55,5376.82l16.86,-10.78a1290.63,1290.63 0 0 0 118.13,162.37l-14.18,14.18l-14.19,14.19l-14.17,14.22l-14.18,14.18l-14.18,14.18l-14.18,14.18a1411,1411 0 0 1 -134.17,-182.75l16.85,-10.79l16.86,-10.79l16.86,-10.78l16.85,-10.79l16.84,-10.82z" fill="#fff" stroke="#333" stroke-miterlimit="10"/>
        <path d="m4179.05945,6098.4707l-0.05747,-20l-0.05746,-20l-0.05986,-20l-0.05747,-20l-0.05747,-20l-0.05747,-20l357.2878,0l-0.05986,20l-0.05747,20l-0.05747,20l-0.05747,20l-0.05746,20l-0.05747,20l-356.5934,0z" currentTotalRotation="0" totalRotation="0" currentRotation="0" lastRotation="0" data-cx="4357.3562" data-cy="6038.4707" data-x="4178.7124" data-y="5978.4707" data-width="357.2876" data-height="120" rotation="0" lastrotation="0" currentrotation="0" totalrotation="0" currenttotalrotation="0" fill="#fff" stroke="#333" stroke-miterlimit="10"/>
        <path d="m3776.26212,6100.23535l-0.05972,-20l-0.05972,-20l-0.06221,-20l-0.05973,-20l-0.05972,-20l-0.05972,-20l371.30421,0l-0.06221,20l-0.05972,20l-0.05972,20l-0.05972,20l-0.05973,20l-0.05972,20l-370.58257,0z" data-cx="3961.55347" data-cy="6040.23535" data-x="3775.90137" data-y="5980.23535" data-width="371.3042" data-height="120" lastrotation="0" rotation="0" currentrotation="0" totalrotation="0" currenttotalrotation="0" fill="#fff" stroke="#333" stroke-miterlimit="10"/>
        <path d="m5704.58,848.11l0.25,20l0.24,20l0.24,20l0.24,20l0.24,20l0.24,20l-267.03,0l-0.24,-20l-0.24,-20l-0.24,-20l-0.24,-20l-0.24,-20l-0.25,-20l267.03,0z" fill="#fff" stroke="#333" stroke-miterlimit="10"/>
        <path d="m4872.6,6102l0.24,-20l0.24,-20l0.24,-20l0.24,-20l0.25,-20l0.24,-20l257,0l-0.24,20l-0.24,20l-0.24,20l-0.24,20l-0.25,20l-0.24,20l-257,0z" fill="#fff" stroke="#333" stroke-miterlimit="10"/>
        <path d="m1314.16,5724.65l12.15,-16l12.16,-16l12.16,-16l12.17,-16l12.16,-16q38.51,35.25 79.32,67l-11.36,16.5l-11.35,16.51l-11.36,16.5l-11.36,16.5l-11.35,16.51l-11.36,16.5q-43.22,-33.31 -84.14,-70.2l12.16,-15.82z" fill="#fff" stroke="#333" stroke-miterlimit="10"/>
        <path d="m5949.66,848.11l-1,20l-1,20l-1,20l-1,20l-1,20l-1,20l-212.66,0l-0.24,-20l-0.24,-20l-0.24,-20l-0.24,-20l-0.24,-20l-0.25,-20l220.11,0z" fill="#fff" stroke="#333" stroke-miterlimit="10"/>
        <path d="m2847.34,6102l-0.25,-20l-0.24,-20l-0.24,-20l-0.24,-20l-0.24,-20l-0.24,-20l226,0l0.24,20l0.24,20l0.24,20l0.24,20l0.25,20l0.24,20l-226,0z" fill="#fff" stroke="#333" stroke-miterlimit="10"/>
        <path d="m1406.08,5825.93l11.35,-16.49l11.35,-16.49l11.35,-16.5l11.35,-16.49l11.35,-16.49l11.35,-16.5q40.53,30.33 83.07,57.23l-11.36,16.5l-11.35,16.49l-11.35,16.49l-11.34,16.49l-11.35,16.49l-11.35,16.49q-42.42,-27.03 -83.07,-57.22z" fill="#fff" stroke="#333" stroke-miterlimit="10"/>
        <path d="m4544.67,848.11l0.24,20l0.24,20l0.24,20l0.24,20l0.25,20l0.24,20l-262.12,0l-0.24,-20l-0.24,-20l-0.24,-20l-0.24,-20l-0.24,-20l-0.25,-20l262.12,0z" fill="#fff" stroke="#333" stroke-miterlimit="10"/>
        <path d="m6958,5689.35q-17,17 -34.57,33.41l-13.82,-14.45l-13.83,-14.46l-13.82,-14.46l-13.82,-14.45l-13.82,-14.46l-13.86,-14.48q16.54,-15.44 32.65,-31.52q22.83,-22.83 44.36,-46.59l15.21,13l15.22,13l15.21,13l15.21,13l15.22,13l15.21,13q-24.61,27.27 -50.75,53.46z" fill="#fff" stroke="#333" stroke-miterlimit="10"/>
        <path d="m1302,1209.49q40.89,-36.87 84.13,-70.2l11.36,16.51l11.36,16.5l11.35,16.5l11.36,16.51l11.35,16.5l11.36,16.5q-40.79,31.77 -79.31,67l-12.17,-16l-12.16,-16l-12.17,-16l-12.16,-16l-12.15,-16l-12.15,-15.82z" fill="#fff" stroke="#333" stroke-miterlimit="10"/>
        <path d="m7300.23,5135a1391.34,1391.34 0 0 1 -96.23,224.12l-17.57,-9.58l-17.56,-9.59l-17.57,-9.58l-17.56,-9.59l-17.56,-9.59l-17.57,-9.58a1272.09,1272.09 0 0 0 86.3,-200.26l19.23,5.61l19.22,5.61l19.23,5.6l19.22,5.61l19.22,5.61l19.2,5.61z" fill="#fff" stroke="#333" stroke-miterlimit="10"/>
        <path d="m7105.64,5516.09q-37.64,52.09 -80.31,101.06l-15.21,-13l-15.21,-13l-15.21,-13l-15.21,-13l-15.21,-13l-15.21,-13q38.86,-44.52 73.23,-92l16.39,11.48l16.4,11.47l16.39,11.48l16.38,11.47l16.39,11.47l16.39,11.57z" fill="#fff" stroke="#333" stroke-miterlimit="10"/>
        <path d="m6787.68,5834.88q-49.36,35.86 -101.35,67.15l-11,-16.71l-11,-16.71l-11,-16.72l-11,-16.72l-11,-16.72l-11,-16.71q46.77,-27.89 91.29,-59.86l12.72,15.51l12.71,15.5l12.71,15.5l12.71,15.5l12.71,15.49l12.5,15.5z" fill="#fff" stroke="#333" stroke-miterlimit="10"/>
        <path d="m1248,1260.73q17.48,-17.49 35.47,-34.26l12.18,16l12.18,16l12.18,16l12.18,16l12.18,16l12.18,16q-12,11.38 -23.7,23.1q-27.85,27.93 -53.85,57.22l-14.17,-14.17l-14.17,-14.17l-14.16,-14.16l-14.17,-14.16l-14.16,-14.13l-14.17,-14.2q26.15,-29.16 54,-57.07z" fill="#fff" stroke="#333" stroke-miterlimit="10"/>
        <path d="m1043.27,1519.35a1411.08,1411.08 0 0 1 134.17,-182.76l14.18,14.18l14.19,14.19l14.18,14.18l14.19,14.19l14.18,14.18l14.19,14.19a1290,1290 0 0 0 -118.14,162.37l-16.86,-10.79l-16.85,-10.79l-16.86,-10.78l-16.84,-10.79l-16.85,-10.79l-16.88,-10.78z" fill="#fff" stroke="#333" stroke-miterlimit="10"/>
        <path d="m3636.29,848.11l-0.25,20l-0.24,20l-0.24,20l-0.24,20l-0.24,20l-0.25,20l-277.92,0l0.24,-20l0.24,-20l0.24,-20l0.25,-20l0.24,-20l0.24,-20l277.93,0z" fill="#fff" stroke="#333" stroke-miterlimit="10"/>
        <path d="m2822.33,848.11l-0.24,20l-0.24,20l-0.24,20l-0.24,20l-0.24,20l-0.25,20l-252,0l0.24,-20l0.24,-20l0.24,-20l0.24,-20l0.24,-20l0.25,-20l252,0z" fill="#fff" stroke="#333" stroke-miterlimit="10"/>
        <path d="m7250.54,3593.05l0,-236l120,0l0,236l-120,0z" fill="#fff" stroke="#333" stroke-miterlimit="10"/>
        <path d="m6891.16,1224.87l-13.83,14.46l-13.83,14.47l-13.83,14.46l-13.83,14.47l-13.84,14.46q-43.74,-39.3 -90.39,-74.18l12.7,-15.48l12.69,-15.48l12.7,-15.48l12.7,-15.48l12.69,-15.49l12.7,-15.48q50.1,37.79 97.19,80.29l-13.82,14.46z" fill="#fff" stroke="#333" stroke-miterlimit="10"/>
        <path d="m1906.99996,6063.85l6.62629,-19.33l6.62628,-19.34l6.61352,-19.33l6.62628,-19.34l6.62629,-19.33l6.62628,-19.34q74.65103,13.71 151.25547,22l-3.15355,19.85l-3.15355,19.86l-3.15355,19.85l-3.15355,19.85l-3.15355,19.86l-3.15355,19.85q-87.12478,-9.32 -172.07911,-25.11z" data-cx="1991.07996" data-cy="6018.3999" data-x="1907" data-y="5947.83984" data-width="191.00049" data-height="141.12012" lastrotation="0" rotation="0" currentrotation="0" totalrotation="0" currenttotalrotation="0" fill="#fff" stroke="#333" stroke-miterlimit="10"/>
        <path d="m1654,5973.24l7.72,-18.48l7.73,-18.48l7.72,-18.48l7.72,-18.48l7.72,-18.47l7.72,-18.48q47.42,22.08 96.5,40.22l-6.87,18.8l-6.87,18.79l-6.86,18.8l-6.87,18.79l-6.87,18.8l-6.87,18.79q-51.62,-19.03 -101.62,-42.12z" fill="#fff" stroke="#333" stroke-miterlimit="10"/>
        <path d="m7250.54,4693.24l0,-63.19l120,0l0,63.19a1433.18,1433.18 0 0 1 -9.43,164.21l-19.86,-2.37l-19.87,-2.37l-19.86,-2.38l-19.86,-2.37l-19.86,-2.37l-19.86,-2.38a1310.88,1310.88 0 0 0 8.6,-149.97z" fill="#fff" stroke="#333" stroke-miterlimit="10"/>
        <path d="m7358,4882.26a1400.84,1400.84 0 0 1 -50.22,228.91l-19.21,-5.61l-19.21,-5.6l-19.21,-5.61l-19.22,-5.6l-19.21,-5.61l-19.21,-5.6a1282.78,1282.78 0 0 0 46.35,-209.54l19.86,2.38l19.87,2.37l19.86,2.37l19.86,2.38l19.86,2.37l19.83,2.39z" fill="#fff" stroke="#333" stroke-miterlimit="10"/>
        <path d="m2101.9999,6092.08l2.20372,-19.85l2.20372,-19.85l2.20372,-19.85l2.20371,-19.85l2.20372,-19.85l2.20372,-19.85a1169.53156,1310.85 0 0 0 136.94274,9l64.87138,0l0.22305,20l0.21412,20l0.21413,20l0.21413,20l0.21412,20l0.21413,20l-66.16506,0a1277.70999,1432.1 0 0 1 -150.16505,-9.9z" currenttotalrotation="0" totalrotation="0" currentrotation="0" rotation="0" lastrotation="0" data-height="129" data-width="216.33008" data-y="5972.97998" data-x="2102" data-cy="6037.47998" data-cx="2204.66504" fill="#fff" stroke="#333" stroke-miterlimit="10"/>
        <path d="m5446.58,6102l0.25,-20l0.24,-20l0.24,-20l0.24,-20l0.24,-20l0.24,-20l258,0l-0.24,20l-0.24,20l-0.24,20l-0.24,20l-0.24,20l-0.25,20l-258,0z" fill="#fff" stroke="#333" stroke-miterlimit="10"/>
        <path d="m5154.63,6102l0.24,-20l0.25,-20l0.24,-20l0.24,-20l0.24,-20l0.24,-20l266.92,0l-0.24,20l-0.24,20l-0.24,20l-0.24,20l-0.24,20l-0.25,20l-266.92,0z" fill="#fff" stroke="#333" stroke-miterlimit="10"/>
        <path d="m6259.19,6070.71q-61.9,13.23 -125.3,20.93l-3.35,-19.75l-3.34,-19.75l-3.34,-19.75l-3.34,-19.75l-3.35,-19.75l-3.34,-19.74q57.33,-6.7 113.45,-18.39l5.32,19.33l5.32,19.33l5.32,19.33l5.32,19.32l5.32,19.32l5.31,19.32z" fill="#fff" stroke="#333" stroke-miterlimit="10"/>
        <path d="m6109,6094.41q-66.54,6.87 -134.32,7.5l-1,-20l-1,-20l-1,-20l-1,-20l-1,-20l-1,-20q60.6,-0.31 120.25,-6.12l3.35,19.77l3.34,19.77l3.35,19.76l3.34,19.76l3.35,19.76l3.34,19.8z" fill="#fff" stroke="#333" stroke-miterlimit="10"/>
        <path d="m7191.93,5381q-33,58.86 -71.84,114.66l-16.39,-11.47l-16.39,-11.48l-16.39,-11.47l-16.39,-11.47l-16.39,-11.47l-16.39,-11.47q35,-50.26 64.79,-103.35l17.57,9.59l17.56,9.59l17.57,9.58l17.56,9.59l17.57,9.58l17.56,9.59z" fill="#fff" stroke="#333" stroke-miterlimit="10"/>
        <path d="m6400.13,6032.78q-57.42,18.72 -116.51,32.47l-5.31,-19.31l-5.32,-19.31l-5.31,-19.3l-5.32,-19.31l-5.31,-19.31l-5.31,-19.3q53.17,-12.16 104.95,-28.77l7.24,18.69l7.24,18.69l7.24,18.69l7.24,18.69l7.24,18.69l7.24,18.69z" fill="#fff" stroke="#333" stroke-miterlimit="10"/>
        <path d="m7223.34,1837.54l-19.23,5.6l-19.22,5.61a1272.5,1272.5 0 0 0 -86.3,-200.26l17.56,-9.58l17.57,-9.59l17.56,-9.58l17.56,-9.59l17.57,-9.58l17.59,-9.57a1390.55,1390.55 0 0 1 96.25,224.13l-19.22,5.6l-19.21,5.61l-19.23,5.61l-19.25,5.59z" fill="#fff" stroke="#333" stroke-miterlimit="10"/>
        <path d="m7370.54,4399.05l0,206l-120,0l0,-206l120,0z" fill="#fff" stroke="#333" stroke-miterlimit="10"/>
        <path d="m6538.72,5979.23q-56.39,25.32 -114.87,45.58l-7.23,-18.67l-7.23,-18.67l-7.23,-18.67l-7.24,-18.67l-7.23,-18.67l-7.24,-18.68q51.65,-17.69 101.57,-39.72l9.46,17.71l9.45,17.7l9.45,17.69l9.44,17.69l9.45,17.69l9.45,17.69z" fill="#fff" stroke="#333" stroke-miterlimit="10"/>
        <path d="m2343.34,6102l-0.25,-20l-0.24,-20l-0.24,-20l-0.24,-20l-0.24,-20l-0.24,-20l202,0l0.25,20l0.24,20l0.24,20l0.24,20l0.24,20l0.24,20l-202,0z" fill="#fff" stroke="#333" stroke-miterlimit="10"/>
        <path d="m6233.79,6704l3.34,19.73a2079.5,2079.5 0 0 1 -275.34,18.27l-281.55,0l-0.06,-20l-0.05,-20l-0.05,-20l-0.06,-20l-0.05,-20l-0.05,-20l-0.06,-20l0,-20l-0.05,-20l-0.06,-20l-0.05,-20l-0.06,-20l-0.05,-20l-0.05,-20l-0.06,-20l-0.05,-20l-0.05,-20l-0.06,-20l-0.05,-20l-0.05,-20l-0.06,-20l0,-20l-0.05,-20l-0.06,-20l-0.05,-20l-0.06,-20l-0.05,-20l-0.05,-20l-0.06,-20l-0.05,-20l283.16,0a1471.75,1471.75 0 0 0 175.11,-10.43l3.34,19.75l3.34,19.75l3.35,19.75l3.34,19.75l3.34,19.74l3.29,19.69l3.34,19.74l3.34,19.74l3.35,19.74l3.34,19.74l3.34,19.74l3.34,19.74l3.34,19.74l3.34,19.74l3.34,19.74l3.34,19.75l3.35,19.74l3.34,19.73l3.34,19.74l3.34,19.74l3.34,19.73l3.34,19.74l3.34,19.73l3.34,19.74l3.34,19.73l3.34,19.74l3.34,19.74l3.34,19.73l3.29,19.76z" fill="#fff" stroke="#333" stroke-miterlimit="10"/>
        <path d="m7521.63,5959.28l15.62,12.5l15.61,12.51a2084.69,2084.69 0 0 1 -142.33,157.58c-145.43,145.43 -308.88,266.3 -485.29,360.54l-8.71,-18l-8.71,-18l-8.7,-18l-8.71,-18l-8.71,-18l-8.71,-18l-8.71,-18l-8.7,-18l-8.71,-18l-8.71,-18l-8.71,-18l-8.71,-18l-8.7,-18l-8.71,-18l-8.71,-18l-8.71,-18l-8.71,-18l-8.71,-18l-8.71,-18l-8.71,-18.05l-8.71,-18l-8.71,-18l-8.71,-18l-8.71,-18.05l-8.71,-18l-8.72,-18l-8.71,-18l-8.72,-18.06l-8.71,-18.05l-8.72,-18.05a1455.49,1455.49 0 0 0 322.31,-243.56q52.09,-52.1 98.17,-108.42l15.62,12.5l15.61,12.5l15.62,12.51l15.62,12.5l15.61,12.51l15.62,12.5l15.61,12.5l15.61,12.5l15.62,12.51l15.61,12.5l15.62,12.5l15.61,12.5l15.62,12.51l15.61,12.5l15.62,12.5l15.61,12.5l15.61,12.51l15.62,12.5l15.61,12.5l15.62,12.5l15.61,12.51l15.62,12.5l15.61,12.5l15.62,12.5l15.61,12.5l15.61,12.51l15.62,12.5l15.61,11.54z" fill="#fff" stroke="#333" stroke-miterlimit="10"/>
        <path d="m6894.4,6496l8.7,18a2027.19,2027.19 0 0 1 -641.2,206.23l-3.34,-19.73l-3.34,-19.73l-3.34,-19.72l-3.34,-19.73l-3.33,-19.73l-3.34,-19.73l-3.34,-19.73l-3.34,-19.73l-3.34,-19.73l-3.34,-19.73l-3.34,-19.73l-3.34,-19.72l-3.34,-19.73l-3.34,-19.73l-3.34,-19.73l-3.34,-19.73l-3.34,-19.73l-3.34,-19.73l-3.34,-19.73l-3.34,-19.73l-3.34,-19.73l-3.34,-19.74l-3.33,-19.73l-3.34,-19.73l-3.34,-19.73l-3.34,-19.73l-3.34,-19.74l-3.35,-19.74l-3.34,-19.73l-3.34,-19.73a1433.65,1433.65 0 0 0 480.29,-155.16l8.71,18l8.7,18l8.71,18.05l8.71,18l8.7,18l8.71,18l8.71,18l8.7,18l8.71,18l8.7,18l8.71,18l8.7,18l8.71,18l8.7,18l8.7,18l8.71,18l8.7,18l8.71,18l8.7,18l8.7,18l8.71,18l8.7,18l8.71,18l8.7,18l8.7,18l8.71,18l8.7,18l8.71,18l8.66,18.79z" fill="#fff" stroke="#333" stroke-miterlimit="10"/>
        <path d="m7410.54,4693.24l0,-202.19l600,0l0,202.19a2059.26,2059.26 0 0 1 -72.54,543.81l-19.13,-5.87l-19.14,-5.88l-19.14,-5.87l-19.14,-5.88l-19.13,-5.87l-19.14,-5.88l-19.14,-5.87l-19.14,-5.88l-19.13,-5.87l-19.14,-5.87l-19.14,-5.88l-19.14,-5.87l-19.14,-5.88l-19.14,-5.87l-19.14,-5.88l-19.14,-5.88l-19.14,-5.87l-19.14,-5.88l-19.15,-5.87l-19.14,-5.88l-19.14,-5.87l-19.14,-5.88l-19.14,-5.87l-19.14,-5.88l-19.14,-5.88l-19.15,-5.87l-19.14,-5.88l-19.15,-5.88l-19.15,-5.88l-19.15,-5.87a1457.15,1457.15 0 0 0 46.76,-367.55z" fill="#fff" stroke="#333" stroke-miterlimit="10"/>
        <path d="m7835.57,5231.77l19.13,5.87l19.13,5.87l19.13,5.87l19.14,5.88l19.13,5.87c-73.12,255 -195.63,493.42 -362.7,703.68l-15.61,-12.51l-15.62,-12.5l-15.61,-12.5l-15.61,-12.5l-15.62,-12.5l-15.61,-12.51l-15.62,-12.5l-15.61,-12.5l-15.61,-12.5l-15.62,-12.5l-15.61,-12.51l-15.62,-12.5l-15.61,-12.5l-15.62,-12.5l-15.61,-12.51l-15.61,-12.5l-15.62,-12.5l-15.61,-12.5l-15.62,-12.5l-15.61,-12.51l-15.61,-12.5l-15.62,-12.5l-15.61,-12.5l-15.62,-12.51l-15.61,-12.5l-15.62,-12.5l-15.61,-12.5l-15.64,-12.52l-15.61,-12.5l-15.61,-12.51a1434.35,1434.35 0 0 0 257.15,-504.78l19.13,5.87l19.13,5.87l19.15,5.88l19.13,5.88l19.14,5.87l19.13,5.87l19.14,5.88l19.13,5.87l19.13,5.87l19.14,5.88l19.13,5.87l19.14,5.87l19.13,5.88l19.13,5.87l19.13,5.87l19.13,5.87l19.14,5.88l19.13,5.87l19.13,5.87l19.13,5.87l19.13,5.88l19.13,5.87l19.14,5.87l19.13,5.87l19.13,5.88z" fill="#fff" stroke="#333" stroke-miterlimit="10"/>
        <path d="m4645,6722l0,20l-529.5,0l0,-600l529.5,0l0,580z" fill="#fff" stroke="#333" stroke-miterlimit="10"/>
        <path d="m5655.18,6722l0.06,20l-495.24,0l0,-600l493.65,0l0.05,20l0.06,20l0.05,20l0.05,20l0.06,20l0.05,20l0.05,20l0.06,20l0,20l0.06,20l0.05,20l0.05,20l0.06,20l0.05,20l0.05,20l0.06,20l0.05,20l0.05,20l0.06,20l0.05,20l0.06,20l0.05,20l0,20l0.06,20l0.05,20l0.05,20l0.06,20l0.05,20l0.13,20z" fill="#fff" stroke="#333" stroke-miterlimit="10"/>
        <path d="m4115.48,228.11l0,-20l529.52,0l0,600l-529.5,0l0,-580l-0.02,0z" fill="#fff" stroke="#333" stroke-miterlimit="10"/>
        <path d="m3071,228.11l0,-20l465,0l0,600l-465,0l0,-580z" fill="#fff" stroke="#333" stroke-miterlimit="10"/>
        <path d="m5135,6722l0,20l-465,0l0,-600l465,0l0,580z" fill="#fff" stroke="#333" stroke-miterlimit="10"/>
        <path d="m3561,228.11l0,-20l529.5,0l0,600l-529.5,0l0,-580z" fill="#fff" stroke="#333" stroke-miterlimit="10"/>
        <path d="m2550.77,228.11l-0.05,-20l495.28,0l0,600l-493.67,0l-0.06,-20l-0.05,-20l-0.06,-20l0,-20l-0.05,-20l-0.06,-20l-0.05,-20l0,-20l-0.06,-20l-0.05,-20l-0.05,-20l-0.06,-20l0,-20l-0.05,-20l-0.06,-20l-0.05,-20l-0.06,-20l0,-20l-0.05,-20l-0.06,-20l-0.05,-20l0,-20l-0.06,-20l-0.05,-20l-0.05,-20l-0.06,-20l0,-20l-0.06,-20l-0.35,-20z" fill="#fff" stroke="#333" stroke-miterlimit="10"/>
        <path d="m5160,228.11l0,-20l495.26,0l-0.06,20l-0.05,20l-0.05,20l-0.06,20l-0.05,20l-0.05,20l-0.06,20l0,20l-0.05,20l-0.06,20l-0.05,20l-0.06,20l-0.05,20l-0.05,20l-0.06,20l-0.05,20l-0.05,20l-0.06,20l-0.05,20l-0.05,20l-0.06,20l0,20l-0.06,20l-0.05,20l-0.05,20l-0.06,20l-0.05,20l-0.05,20l-0.06,20l-0.05,20l-493.75,0l0,-580z" fill="#fff" stroke="#333" stroke-miterlimit="10"/>
        <path d="m2244.17,208.11l281.55,0l0.05,20l0.05,20l0.06,20l0,20l0.06,20l0.05,20l0.05,20l0.06,20l0,20l0.05,20l0.06,20l0.05,20l0,20l0.06,20l0.05,20l0.05,20l0.06,20l0,20l0.06,20l0.05,20l0.05,20l0.06,20l0,20l0.05,20l0.06,20l0.05,20l0,20l0.06,20l0.05,20l0.06,20l-282.86,0a1464.18,1464.18 0 0 0 -272.41,25.44l-4.14,-19.55l-4.14,-19.58l-4.15,-19.59l-4.14,-19.58l-4.14,-19.58l-4.15,-19.57l-4.14,-19.58l-4.14,-19.58l-4.14,-19.57l-4.15,-19.58l-4.14,-19.58l-4.14,-19.57l-4.14,-19.64l-4.14,-19.57l-4.15,-19.58l-4.14,-19.57l-4.14,-19.58l-4.14,-19.57l-4.14,-19.58l-4.15,-19.55l-4.14,-19.58l-4.14,-19.58l-4.14,-19.57l-4.14,-19.58l-4.15,-19.57l-4.14,-19.58l-4.14,-19.54l-4.14,-19.58l-4.14,-19.57l-4.15,-19.58a2071,2071 0 0 1 396.68,-38.16z" fill="#fff" stroke="#333" stroke-miterlimit="10"/>
        <path d="m5680.18,228.11l0.06,-20l281.55,0a2081.19,2081.19 0 0 1 275.34,18.23l-3.34,19.74l-3.34,19.74l-3.34,19.73l-3.34,19.74l-3.34,19.71l-3.34,19.74l-3.34,19.73l-3.34,19.74l-3.34,19.79l-3.34,19.73l-3.34,19.74l-3.34,19.74l-3.34,19.73l-3.34,19.74l-3.37,19.71l-3.34,19.75l-3.34,19.74l-3.32,19.74l-3.34,19.74l-3.34,19.74l-3.32,19.74l-3.35,19.74l-3.34,19.74l-3.31,19.74l-3.34,19.74l-3.34,19.74l-3.34,19.75l-3.4,19.71l-3.34,19.75l-3.34,19.75a1471.75,1471.75 0 0 0 -175.11,-10.43l-283.16,0l0.05,-20l0.06,-20l0.05,-20l0.05,-20l0.06,-20l0.05,-20l0.06,-20l0.05,-20l0,-20l0.06,-20l0.05,-20l0.05,-20l0.06,-20l0.05,-20l0.05,-20l0.06,-20l0.05,-20l0.05,-20l0.06,-20l0.05,-20l0.06,-20l0.05,-20l0,-20l0.06,-20l0.05,-20l0.05,-20l0.06,-20l0.05,-20l0.15,-19.96z" fill="#fff" stroke="#333" stroke-miterlimit="10"/>
        <path d="m566.85,1150.42l-16.44,-11.42l-16.41,-11.41a2082.63,2082.63 0 0 1 526.7,-543.71l11.9,16.12l11.91,16l11.9,16.08l11.91,16.09l11.9,16.08l11.91,16.08l11.9,16.08l11.9,16.09l11.91,16.08l11.9,16.08l11.91,16.09l11.9,16.08l11.91,16.17l11.9,16.08l11.91,16.09l11.9,16.08l11.91,16.09l11.92,16.03l11.9,16.09l11.91,16.08l11.91,16.09l11.9,16.08l11.91,16.09l11.9,16.08l11.9,16.12l11.91,16.08l11.9,16.09l11.92,16.1l11.91,16.08l11.91,16.09a1471.57,1471.57 0 0 0 -390.79,403.7l-16.44,-11.42l-16.45,-11.42l-16.44,-11.42l-16.44,-11.42l-16.43,-11.46l-16.44,-11.41l-16.45,-11.41l-16.43,-11.42l-16.44,-11.42l-16.44,-11.41l-16.44,-11.42l-16.43,-11.42l-16.44,-11.42l-16.38,-11.41l-16.44,-11.42l-16.43,-11.42l-16.49,-11.42l-16.44,-11.41l-16.43,-11.42l-16.44,-11.42l-16.44,-11.42l-16.43,-11.41l-16.46,-11.42l-16.43,-11.42l-16.44,-11.41l-16.43,-11.42l-16.44,-11.41l-16.41,-11.42z" fill="#fff" stroke="#333" stroke-miterlimit="10"/>
        <path d="m4670,228.11l0,-20l465,0l0,600l-465,0l0,-580z" fill="#fff" stroke="#333" stroke-miterlimit="10"/>
        <path d="m1093.08,585.6l-11.91,-16.08a2024.81,2024.81 0 0 1 741.83,-318.33l4.15,19.57l4.14,19.58l4.14,19.57l4.14,19.57l4.14,19.58l4.14,19.57l4.15,19.57l4.14,19.58l4.14,19.57l4.14,19.58l4.14,19.57l4.14,19.57l4.15,19.58l4.14,19.57l4.14,19.57l4.14,19.57l4.14,19.58l4.14,19.57l4.15,19.57l4.14,19.58l4.14,19.57l4.14,19.57l4.14,19.58l4.14,19.57l4.15,19.57l4.14,19.58l4.14,19.57l4.14,19.59l4.15,19.57l4.14,19.58a1431.55,1431.55 0 0 0 -508.73,213.86l-11.91,-16.09l-11.91,-16.1l-11.93,-16.1l-11.91,-16.1l-11.92,-16.1l-11.95,-16.09l-11.91,-16.1l-11.92,-16.09l-11.91,-16.09l-11.91,-16.09l-11.91,-16.1l-11.91,-16.09l-11.89,-16.13l-11.91,-16l-11.92,-16.09l-11.91,-16.1l-11.9,-16.14l-11.91,-16.09l-11.91,-16.09l-11.91,-16.09l-11.91,-16.09l-11.91,-16.09l-11.91,-16.09l-11.92,-16.13l-11.91,-16l-11.9,-16.09l-11.91,-16.09l-11.9,-16.13l-11.92,-16.09z" fill="#fff" stroke="#333" stroke-miterlimit="10"/>
        <path d="m7410.54,4000.05l0,-512l600,0l0,512l-600,0z" fill="#fff" stroke="#333" stroke-miterlimit="10"/>
        <path d="m7410.54,4466.05l0,-441l600,0l0,441l-600,0z" fill="#fff" stroke="#333" stroke-miterlimit="10"/>
        <path d="m3536,6722l0,20l-465,0l0,-600l465,0l0,580z" fill="#fff" stroke="#333" stroke-miterlimit="10"/>
        <path d="m7410.54,3462.05l0,-512l600,0l0,512l-600,0z" fill="#fff" stroke="#333" stroke-miterlimit="10"/>
        <path d="m2525.77,6722l-0.05,20l-281.55,0a2070.23,2070.23 0 0 1 -396.68,-38.15l4.15,-19.57l4.14,-19.58l4.14,-19.57l4.14,-19.58l4.14,-19.57l4.15,-19.58l4.14,-19.57l4.14,-19.58l4.14,-19.57l4.14,-19.58l4.15,-19.57l4.14,-19.58l4.14,-19.57l4.14,-19.58l4.14,-19.57l4.15,-19.58l4.14,-19.57l4.14,-19.58l4.14,-19.57l4.14,-19.58l4.15,-19.58l4.14,-19.57l4.14,-19.58l4.14,-19.58l4.15,-19.58l4.14,-19.57l4.14,-19.58l4.15,-19.6l4.14,-19.57l4.14,-19.58a1464.26,1464.26 0 0 0 272.41,25.44l283.16,0l-0.06,20l-0.05,20l-0.06,20l0,20l-0.05,20l-0.06,20l-0.05,20l0,20l-0.06,20l-0.05,20l-0.05,20l-0.06,20l0,20l-0.06,20l-0.05,20l-0.05,20l-0.06,20l0,20l-0.05,20l-0.06,20l-0.05,20l0,20l-0.06,20l-0.05,20l-0.05,20l-0.06,20l0,20l-0.06,20l-0.35,20z" fill="#fff" stroke="#333" stroke-miterlimit="10"/>
        <path d="m3046,6722l0,20l-495.28,0l0.05,-20l0.05,-20l0.06,-20l0,-20l0.06,-20l0.05,-20l0.05,-20l0.06,-20l0,-20l0.05,-20l0.06,-20l0.05,-20l0,-20l0.06,-20l0.05,-20l0.06,-20l0.05,-20l0,-20l0.06,-20l0.05,-20l0.05,-20l0.06,-20l0,-20l0.05,-20l0.06,-20l0.05,-20l0,-20l0.06,-20l0.05,-20l0.06,-20l493.97,0l0,580z" fill="#fff" stroke="#333" stroke-miterlimit="10"/>
        <path d="m1072.61,6350.13l-11.9,16.08a2082.59,2082.59 0 0 1 -526.71,-543.7l16.43,-11.42l16.44,-11.41l16.43,-11.42l16.44,-11.41l16.43,-11.42l16.42,-11.43l16.41,-11.4l16.44,-11.42l16.43,-11.41l16.44,-11.42l16.44,-11.42l16.43,-11.42l16.44,-11.41l16.44,-11.42l16.43,-11.42l16.51,-11.42l16.44,-11.41l16.39,-11.43l16.43,-11.42l16.44,-11.42l16.44,-11.41l16.43,-11.42l16.43,-11.41l16.44,-11.42l16.44,-11.41l16.43,-11.42l16.44,-11.42l16.44,-11.42l16.44,-11.42l16.45,-11.42a1470.81,1470.81 0 0 0 390.79,403.7l-11.87,16.09l-11.91,16.08l-11.92,16.1l-11.9,16.09l-11.91,16.08l-11.91,16.09l-11.9,16.08l-11.91,16.09l-11.9,16.08l-11.91,16.09l-11.91,16.08l-11.9,16.09l-11.91,16.08l-11.9,16.09l-11.94,16.1l-11.9,16.08l-11.91,16.08l-11.9,16.09l-11.91,16.08l-11.9,16.08l-11.91,16.08l-11.9,16.09l-11.9,16.08l-11.91,16.08l-11.9,16.08l-11.91,16.08l-11.9,16.09l-11.91,16.08l-11.9,16.06z" fill="#fff" stroke="#333" stroke-miterlimit="10"/>
        <path d="m1827.13,6679.33l-4.13,19.57a2025,2025 0 0 1 -741.81,-318.32l11.91,-16.09l11.9,-16.09l11.9,-16.09l11.91,-16.09l11.91,-16.08l11.91,-16.09l11.91,-16.09l11.91,-16.09l11.9,-16.09l11.91,-16.08l11.91,-16.09l11.92,-16.1l11.91,-16.09l11.91,-16.09l11.91,-16.09l11.91,-16.09l11.91,-16.09l11.91,-16.09l11.91,-16.1l11.91,-16.09l11.91,-16.09l11.92,-16.09l11.91,-16.09l11.91,-16.1l11.92,-16.09l11.91,-16.1l11.91,-16.1l11.93,-16.1l11.91,-16.1l11.91,-16.09a1431.7,1431.7 0 0 0 508.73,213.86l-4.14,19.58l-4.15,19.57l-4.14,19.59l-4.14,19.57l-4.14,19.57l-4.15,19.58l-4.14,19.57l-4.14,19.57l-4.14,19.58l-4.14,19.57l-4.14,19.57l-4.15,19.58l-4.14,19.57l-4.14,19.57l-4.14,19.58l-4.14,19.57l-4.14,19.57l-4.15,19.58l-4.14,19.57l-4.14,19.57l-4.14,19.57l-4.14,19.58l-4.14,19.57l-4.14,19.57l-4.15,19.58l-4.14,19.57l-4.14,19.57l-4.14,19.58l-4.14,19.57z" fill="#fff" stroke="#333" stroke-miterlimit="10"/>
        <path d="m266.11,5147.21l-19.08,6.3a2065,2065 0 0 1 -51.61,-460.27l0,-165.19l840,0l0,165.19a1225.44,1225.44 0 0 0 15.58,194.89l-19.22,6.35l-19.22,6.34l-19.23,6.35l-19.22,6.34l-19.21,6.35l-19.19,6.33l-19.19,6.33l-19.19,6.34l-19.19,6.33l-19.18,6.34l-19.18,6.33l-19.16,6.32l-19.16,6.32l-19.15,6.33l-19.18,6.33l-19.15,6.32l-19.15,6.32l-19.15,6.32l-19.13,6.32l-19.14,6.32l-19.13,6.31l-19.14,6.32l-19.14,6.31l-19.15,6.3l-19.12,6.31l-19.13,6.32l-19.11,6.37l-19.11,6.3l-19.11,6.31l-19.11,6.31l-19.11,6.31l-19.1,6.3l-19.1,6.31l-19.1,6.3l-19.1,6.31l-19.09,6.3l-19.1,6.3l-19.09,6.31l-19.09,6.3l-19.08,6.3l-19.09,6.25z" fill="#fff" stroke="#333" stroke-miterlimit="10"/>
        <path d="m7918.83,1718.93l19.13,-5.88a2059,2059 0 0 1 72.58,543.81l0,202.19l-600,0l0,-202.19a1457.72,1457.72 0 0 0 -46.79,-367.55l19.15,-5.87l19.14,-5.88l19.15,-5.88l19.15,-5.88l19.14,-5.87l19.15,-5.88l19.14,-5.87l19.14,-5.88l19.14,-5.87l19.14,-5.88l19.14,-5.88l19.14,-5.87l19.14,-5.88l19.14,-5.87l19.14,-5.88l19.14,-5.87l19.15,-5.88l19.14,-5.87l19.14,-5.88l19.14,-5.87l19.13,-5.88l19.14,-5.87l19.14,-5.88l19.13,-5.87l19.14,-5.87l19.14,-5.88l19.13,-5.87l19.14,-5.88l19.14,-5.87z" fill="#fff" stroke="#333" stroke-miterlimit="10"/>
        <path d="m536.72,5790.16l-16.44,11.42a2023.87,2023.87 0 0 1 -267.51,-623.64l19.06,-6.29l19.07,-6.3l19.06,-6.29l19.07,-6.29l19.06,-6.3l19.08,-6.29l19.07,-6.3l19.08,-6.3l19.07,-6.29l19.08,-6.3l19.07,-6.3l19.08,-6.29l19.08,-6.3l19.09,-6.3l19.09,-6.3l19.08,-6.3l19.09,-6.31l19.09,-6.3l19.1,-6.3l19.09,-6.3l19.1,-6.31l19.1,-6.3l19.1,-6.31l19.11,-6.31l19.11,-6.3l19.11,-6.31l19.11,-6.31l19.13,-6.31l19.12,-6.32l19.13,-6.31l19.13,-6.32l19.13,-6.31l19.13,-6.32l19.13,-6.31l19.14,-6.32l19.15,-6.32l19.16,-6.33l19.16,-6.32l19.16,-6.32l19.15,-6.33l19.17,-6.32l19.19,-6.34a1194.33,1194.33 0 0 0 143.75,388.39l-16.87,10.79l-16.86,10.8l-16.86,10.79l-16.87,10.79l-16.86,10.79l-16.86,10.79l-16.88,10.82l-16.86,10.79l-16.86,10.79l-16.87,10.79l-16.86,10.79l-0.17,0.11l3.12,4.87q6.72,11.24 13.67,22.34l-16.45,11.43l-16.45,11.42l-16.45,11.43l-16.47,11.44l-16.45,11.43l-16.45,11.37l-16.45,11.43l-16.45,11.42l-16.49,11.45l-16.44,11.42l-16.45,11.43l-16.45,11.42l-16.4,11.43l-16.45,11.42l-16.44,11.42l-16.45,11.42l-16.44,11.42l-16.48,11.43l-16.45,11.42l-16.4,11.47l-16.45,11.42l-16.44,11.43l-16.44,11.42l-16.45,11.42l-16.44,11.42l-16.44,11.42l-16.44,11.42l-16.44,11.42l-16.44,11.42l-16.45,11.37z" fill="#fff" stroke="#333" stroke-miterlimit="10"/>
        <path d="m7410.54,2925.05l0,-441l600,0l0,441l-600,0z" fill="#fff" stroke="#333" stroke-miterlimit="10"/>
        <path d="m1035.42,3487.55l0,508.5l-840,0l0,-508.5l840,0z" fill="#fff" stroke="#333" stroke-miterlimit="10"/>
        <path d="m6916.54,465.71l8.7,-18c176.38,94.21 339.78,215.05 485.18,360.43a2086.09,2086.09 0 0 1 142.44,157.71l-15.62,12.5l-15.61,12.5l-15.63,12.48l-15.61,12.5l-15.62,12.5l-15.61,12.5l-15.61,12.51l-15.62,12.5l-15.61,12.5l-15.62,12.5l-15.61,12.51l-15.61,12.5l-15.62,12.5l-15.61,12.5l-15.62,12.5l-15.63,12.51l-15.62,12.5l-15.61,12.5l-15.62,12.5l-15.61,12.51l-15.61,12.5l-15.62,12.5l-15.61,12.5l-15.62,12.5l-15.61,12.51l-15.61,12.5l-15.62,12.5l-15.62,12.51l-15.61,12.5l-15.62,12.5q-46.1,-56.28 -98.23,-108.49a1455.55,1455.55 0 0 0 -322.16,-243.49l8.71,-18l8.72,-18.06l8.71,-18l8.72,-18l8.71,-18.05l8.71,-18l8.71,-18l8.71,-18.05l8.71,-18l8.71,-18l8.71,-18l8.71,-18l8.71,-18l8.71,-18l8.71,-18l8.71,-18l8.71,-18l8.71,-18l8.71,-18l8.71,-18l8.7,-18l8.71,-18l8.71,-18l8.71,-18l8.71,-18l8.7,-18l8.71,-18l8.71,-18l8.66,-19.04z" fill="#fff" stroke="#333" stroke-miterlimit="10"/>
        <path d="m1035.42,4021.05l0,482l-840,0l0,-482l840,0z" fill="#fff" stroke="#333" stroke-miterlimit="10"/>
        <path d="m7552.91,997.8l15.61,-12.5c167.07,210.27 289.58,448.7 362.7,703.7l-19.13,5.88l-19.13,5.87l-19.13,5.87l-19.14,5.87l-19.13,5.88l-19.13,5.87l-19.13,5.87l-19.13,5.87l-19.13,5.88l-19.14,5.87l-19.13,5.87l-19.13,5.87l-19.13,5.88l-19.13,5.87l-19.13,5.87l-19.13,5.87l-19.14,5.88l-19.13,5.87l-19.13,5.87l-19.14,5.88l-19.13,5.87l-19.13,5.87l-19.14,5.88l-19.13,5.87l-19.14,5.87l-19.13,5.88l-19.13,5.87l-19.15,5.88l-19.13,5.87l-19.14,5.87a1434.19,1434.19 0 0 0 -257.15,-504.78l15.62,-12.5l15.61,-12.5l15.64,-12.52l15.61,-12.51l15.62,-12.5l15.61,-12.5l15.62,-12.5l15.61,-12.51l15.61,-12.5l15.62,-12.5l15.61,-12.5l15.61,-12.5l15.62,-12.51l15.61,-12.5l15.62,-12.5l15.61,-12.5l15.61,-12.5l15.62,-12.51l15.61,-12.5l15.62,-12.5l15.61,-12.5l15.61,-12.5l15.62,-12.51l15.61,-12.5l15.61,-12.5l15.62,-12.5l15.61,-12.5l15.62,-12.51l15.61,-12.53z" fill="#fff" stroke="#333" stroke-miterlimit="10"/>
        <path d="m1035.42,2447.05l0,482l-840,0l0,-482l840,0z" fill="#fff" stroke="#333" stroke-miterlimit="10"/>
        <path d="m4090.48,6722l0,20l-529.48,0l0,-600l529.5,0l0,580l-0.02,0z" fill="#fff" stroke="#333" stroke-miterlimit="10"/>
        <path d="m1035.42,2954.05l0,508.5l-840,0l0,-508.5l840,0z" fill="#fff" stroke="#333" stroke-miterlimit="10"/>
        <path d="m6258.56,249.53l3.34,-19.73a2027.17,2027.17 0 0 1 641.21,206.2l-8.71,18l-8.7,18l-8.7,18l-8.71,18l-8.7,18l-8.71,18l-8.7,18l-8.7,18l-8.71,18l-8.7,18l-8.71,18l-8.7,18l-8.7,18l-8.71,18l-8.7,18l-8.71,18l-8.7,18l-8.7,18l-8.71,18l-8.7,18l-8.71,18l-8.7,18l-8.71,18l-8.71,18l-8.7,18l-8.71,18l-8.7,18l-8.71,18l-8.71,18l-8.7,18a1433.69,1433.69 0 0 0 -480.26,-155.21l3.34,-19.73l3.34,-19.73l3.35,-19.74l3.34,-19.74l3.34,-19.73l3.34,-19.73l3.34,-19.73l3.33,-19.73l3.34,-19.74l3.34,-19.73l3.34,-19.73l3.34,-19.73l3.34,-19.73l3.34,-19.73l3.34,-19.73l3.34,-19.73l3.34,-19.73l3.34,-19.73l3.34,-19.73l3.34,-19.72l3.34,-19.73l3.34,-19.73l3.34,-19.73l3.34,-19.73l3.34,-19.73l3.34,-19.73l3.33,-19.73l3.34,-19.73l3.34,-18.8z" fill="#fff" stroke="#333" stroke-miterlimit="10"/>
        <path d="m329,1797.34l-19,-6.34l-19.06,-6.29l-19.07,-6.3l-19.06,-6.29a2023.87,2023.87 0 0 1 267.51,-623.64l16.44,11.42l16.44,11.42l16.44,11.42l16.36,11.46l16.44,11.41l16.48,11.39l16.45,11.42l16.44,11.42l16.45,11.42l16.44,11.43l16.45,11.42l16.44,11.42l16.41,11.47l16.45,11.43l16.44,11.42l16.45,11.42l16.44,11.42l16.45,11.43l16.44,11.42l16.48,11.46l16.45,11.43l16.45,11.42l16.44,11.43l16.45,11.43l16.45,11.42l16.45,11.43l16.45,11.42l16.47,11.44l16.45,11.43l16.45,11.43l16.45,11.42q-6.93,11.1 -13.65,22.31l-3.14,4.9l0.17,0.11l16.86,10.79l16.87,10.79l16.86,10.79l16.86,10.79l16.87,10.79l16.86,10.8l16.86,10.79l16.87,10.79l16.86,10.79l16.86,10.79l16.87,10.79a1194.33,1194.33 0 0 0 -143.74,388.39l-19.19,-6.34l-19.17,-6.32l-19.15,-6.33l-19.16,-6.32l-19.16,-6.32l-19.16,-6.33l-19.15,-6.32l-19.11,-6.37l-19.13,-6.31l-19.13,-6.32l-19.13,-6.31l-19.13,-6.32l-19.13,-6.31l-19.12,-6.31l-19.13,-6.32l-19.1,-6.26l-19.11,-6.3l-19.11,-6.31l-19.15,-6.39l-19.1,-6.31l-19.1,-6.3l-19.1,-6.3l-19.1,-6.31l-19.09,-6.3l-19.09,-6.3l-19.09,-6.3l-19.09,-6.3l-19.08,-6.3l-19.09,-6.28l-19.08,-6.31l-19.08,-6.29l-19.08,-6.3l-19.07,-6.3l-19.08,-6.29l-19.07,-6.3l-19.08,-6.3l-19.07,-6.29l-19.09,-6.28z" fill="#fff" stroke="#333" stroke-miterlimit="10"/>
        <path d="m1035.42,2256.86l0,165.19l-840,0l0,-165.19a2065,2065 0 0 1 51.58,-460.27l19.08,6.3l19.09,6.3l19.08,6.3l19.09,6.3l19.09,6.31l19.1,6.3l19.09,6.3l19.1,6.31l19.1,6.3l19.09,6.31l19.11,6.3l19.11,6.31l19.11,6.31l19.11,6.31l19.11,6.3l19.11,6.31l19.13,6.32l19.12,6.31l19.18,6.31l19.12,6.31l19.14,6.32l19.13,6.32l19.14,6.31l19.13,6.32l19.15,6.32l19.15,6.32l19.15,6.32l19.18,6.33l19.15,6.33l19.16,6.32l19.16,6.32l19.18,6.33l19.18,6.34l19.19,6.33l19.19,6.34l19.19,6.33l19.19,6.33l19.21,6.35l19.22,6.34l19.23,6.35l19.22,6.34l19.24,6.38a1225.44,1225.44 0 0 0 -15.58,194.86z" fill="#fff" stroke="#333" stroke-miterlimit="10"/>
        <path d="m1986.48,5062.55l-96.29,126.11l-12.12,15.93l-12.07,15.92l-12.12,15.93l-12.13,15.92l-12.12,15.92l-12.11,15.92l-12.12,15.92l-12.17,15.88l-12.12,16l-12.11,15.88l-12.11,15.92l-12.12,15.92l-12.12,15.92l-12.12,15.92a901.84,901.84 0 0 1 -232.72,-251l16.42,-11.48l16.42,-11.48l16.43,-11.49l16.43,-11.48l16.43,-11.49l16.43,-11.48l16.43,-11.49l16.44,-11.49l16.43,-11.48l16.44,-11.5l16.45,-11.49l16.44,-11.5l16.45,-11.5l16.44,-11.49l127.6,-92.14l140.99,154.97z" fill="#fff" stroke="#333" stroke-miterlimit="10"/>
        <path d="m1740.9,5426.06l12.13,-15.93l12.13,-15.94l12.14,-15.94l12.13,-15.94l12.14,-16l12.13,-15.94l12.14,-15.94l12.13,-15.94l12.14,-15.94l12.13,-16l12.15,-15.95l12.14,-16l12.15,-15.95l12.14,-16l12.15,-15.95l12.15,-16l12.15,-16l12.16,-16l12.15,-16l12.16,-16l12.17,-16l12.17,-16l12.18,-16l12.18,-16l12.19,-16l12.21,-16l12.2,-16l12.21,-16l12.23,-16.06l12.26,-16.1l12.25,-16.1l12.3,-16.16l12.32,-16.18l12.36,-16.24a208,208 0 0 0 89.2,19.9l239.57,0l-1,20l-1,20l-1,20l-1,20l-1,20l-1,20l-1,20l-1,20l-1,20l-1,20l-1,20l-1,20l-1,20l-1,20l-1,20l-1,20l-1,20l-1,20l-1,20l-1,20l-1,20l-1,20l-1,20l-1,20l-1,20l-1,20l-1,20l-1,20l-1,20l-1,20l-1,20l-1,20l-1,20l-1,20l-205.57,0c-182.36,0.24 -356.32,-54.33 -503.27,-155.7z" fill="#fff" stroke="#333" stroke-miterlimit="10"/>
        <path d="m6850.66,2362.69l0,567.1l-420,0l0,-500.6l20,-3.17l20,-3.17l20,-3.16l20,-3.17l20,-3.17l20,-3.16l20,-3.17l20,-3.17l20,-3.16l20,-3.17l20,-3.17l20,-3.16l20,-3.17l20,-3.17l20,-3.16l20,-3.17l20,-3.17l20,-3.16l20,-3.17l20,-3.17l20,-3.16zm-460,187.47l0,379.63l-220,0l0,-365.31l20,-1.31l20,-1.3l20,-1.3l20,-1.3l20,-1.3l20,-1.3l20,-1.3l20,-1.31l20,-1.3l20,-1.3l20,-1.3z" fill="#fff" stroke="#333" stroke-miterlimit="10"/>
        <path d="m4640.46,2048.11l0,-20l0,-20l-0.05,-20l0,-20l0,-20l0,-20l0,-20l-0.05,-20l0,-20l0,-20l0,-20l-0.05,-20l0,-20l0,-20l0,-20l0,-20l-0.05,-20l0,-20l0,-20l0,-20l0,-20l-0.05,-20l0,-20l0,-20l0,-20l0,-20l-0.05,-20l0,-20l0,-20l0,-20l0,-20l-0.05,-20l0,-20l0,-20l593,0l0.05,20l0,20l0,20l0,20l0.05,20l0,20l0,20l0,20l0,20l0.05,20l0,20l0,20l0,20l0,20l0.05,20l0,20l0,20l0,20l0,20l0.05,20l0,20l0,20l0,20l0.05,20l0,20l0,20l0,20l0,20l0.05,20l0,20l0,20l0,20l0,20l0.05,20l-593.05,0z" fill="#fff" stroke="#333" stroke-miterlimit="10"/>
        <path d="m2948.53,2028.11l0,20l-439.11,0l-1,-20l-1,-20l-1,-20l-1,-20l-1,-20l-1,-20l-1,-20l-1,-20l-1,-20l-1,-20l-1,-20l-1,-20l-1,-20l-1,-20l-1,-20l-1,-20l-1,-20l-1,-20l-1,-20l-1,-20l-1,-20l-1,-20l-1,-20l-1,-20l-1,-20l-1,-20l-1,-20l-1,-20l-1,-20l-1,-20l-1,-20l-1,-20l-1,-20l-1,-20l474.55,0l0,20l-0.05,20l0,20l0,20l0,20l-0.05,20l0,20l0,20l0,20l0,20l-0.05,20l0,20l0,20l0,20l0,20l-0.05,20l0,20l0,20l0,20l0,20l0,20l0,20l0,20l0,20l0,20l0,20l0,20l0,20l0,20l0,20l0,20l0,20l-1.24,20z" fill="#fff" stroke="#333" stroke-miterlimit="10"/>
        <path d="m6632,5277l-4,-3.78l-17.25,18.1l4.51,4.29q-12.23,13.23 -25,26.06a899.84,899.84 0 0 1 -104.81,89.89l-243,-319l144,-164l331.42,232.44a890.28,890.28 0 0 1 -85.87,116z" fill="#fff" stroke="#333" stroke-miterlimit="10"/>
        <path d="m6190.66,2538.12l-20,1.3l0,-277.82a210,210 0 0 0 -6,-49.92l226.26,-158.38l0,356.79l-0.27,0l0,115l-20,1.3l0,0l-20,1.3l0,0l-20,1.3l-20,1.3l0,0l-20,1.3l-20,1.3l-20,1.3l0,0l-20,1.3l0,0l-20,1.3l-19.99,1.33zm540.26,-722.8c78.11,134.08 119.74,287 119.74,446.28l0,75.77l-20,3.17l0,0l-20,3.17l-20,3.17l-20,3.17l0,0l-20,3.17l-20,3.17l-20,3.17l0,0l-20,3.17l-20,3.17l-20,3.17l0,0l-20,3.17l-20,3.17l-20,3.17l0,0l-20,3.17l-20,3.17l-20,3.17l0,0l-20,3.17l-20,3.17l-20,3.17l0,0l-20,3.17l-20,3.17l-0.73,0.12l0,-378.06l86.83,-60.77l0,0l16.5,-11.55l-12.95,9.06l45.95,-32.16l0,0l16.48,-11.54l16.47,-11.52l0,0l16.48,-11.53c1,1.85 2,3.7 3.05,5.55c-1,-1.85 -2,-3.7 -3.05,-5.55l16.48,-11.53l0,0l16.46,-11.52l0,0l16.46,-11.52l0,0l16.46,-11.52l0,0l16.45,-11.51l0,0l16.46,-11.52l0,0l16.46,-11.55z" fill="#fff" stroke="#333" stroke-miterlimit="10"/>
        <path d="m1355.42,2915.05l0,-490.16l20,1.87l20,1.88l20,1.88l20,1.88l20,1.88l20,1.88l20,1.88l20,1.88l20,1.88l20,1.88l20,1.88l20,1.88l20,1.87l20,1.88l20,1.88l20,1.88l20,1.88l20,1.88l20,1.88l20,1.88l20,1.88l20,1.88l20,1.88l20,1.88l20,1.87l20,1.88l20,1.88l20,1.88l20,1.88l20,1.88l20,1.88l20,1.88l20,1.88l20,1.88l0,426.27l-680,0z" fill="#fff" stroke="#333" stroke-miterlimit="10"/>
        <path d="m1845.48,2046.56l-127.6,-92.14l-16.44,-11.49l-16.45,-11.5l-16.44,-11.49l-16.45,-11.5l-16.44,-11.5l-16.43,-11.48l-16.44,-11.46l-16.43,-11.48l-16.43,-11.52l-16.43,-11.49l-16.43,-11.51l-16.43,-11.49l-16.42,-11.48l-16.42,-11.47a902.11,902.11 0 0 1 232.72,-251l12.12,15.92l12.12,15.92l12.12,15.92l12.11,15.92l12.12,15.92l12.12,15.92l12.12,15.92l12.12,15.92l12.11,15.92l12.12,15.92l12.13,15.93l12.17,15.91l12.12,15.93l12.12,15.92l96.29,126.11l-141.05,155z" fill="#fff" stroke="#333" stroke-miterlimit="10"/>
        <path d="m1747.42,1519.6c145.56,-98.52 317.08,-151.49 496.75,-151.49l206.17,0l1,20l1,20l1,20l1,20l1,20l1,20l1,20l1,20l1,20l1,20l1,20l1,20l1,20l1,20l1,20l1,20l1,20l1,20l1,20l1,20l1,20l1,20l1,20l1,20l1,20l1,20l1,20l1,20l1,20l1,20l1,20l1,20l1,20l1,20l-240.17,0a208.23,208.23 0 0 0 -81.82,16.6l-12.47,-16.38l-12.41,-16.33l-12.36,-16.23l-12.33,-16.2l-12.29,-16.16l-12.28,-16.13l-12.21,-16.07l-12.25,-16.1l-12.28,-16.11l-12.22,-16l-12.2,-16l-12.2,-16l-12.2,-16l-12.18,-16l-12.19,-16l-12.17,-16l-12.17,-16l-12.17,-16l-12.17,-16l-12.15,-16l-12.16,-16l-12.15,-16l-12.16,-16l-12.15,-16l-12.15,-15.95l-12.14,-16l-12.15,-16l-12.14,-16l-12.14,-16l-12.15,-16l-12.14,-15.94l-12.13,-16l-12.14,-15.94l-12.13,-15.57z" fill="#fff" stroke="#333" stroke-miterlimit="10"/>
        <path d="m5721.57,2048.11l1,-20l1,-20l1,-20l1,-20l1,-20l1,-20l1,-20l1,-20l1,-20l1,-20l1,-20l1,-20l1,-20l1,-20l1,-20l1,-20l1,-20l1,-20l1,-20l1,-20l1,-20l1,-20l1,-20l1,-20l1,-20l1,-20l1,-20l1,-20l1,-20l1,-20l1,-20l1,-20l1,-20l1,-20l206.17,0c179.66,0 351.18,53 496.75,151.49l-12.14,15.94l-12.13,15.94l-12.14,16l-12.08,15.89l-12.14,16l-12.15,16l-12.14,16l-12.15,16l-12.14,16l-12.14,15.95l-12.16,16l-12.15,16l-12.16,16l-12.15,16l-12.16,16l-12.17,16l-12.17,16l-12.17,16l-12.17,16l-12.18,16l-12.19,16l-12.19,16l-12.2,16l-12.21,16l-12.22,16l-12.23,16.07l-12.25,16.1l-12.25,16.09l-12.28,16.13l-12.3,16.16l-12.33,16.2l-12.36,15.93l-12.42,16.31l-12.47,16.38a208.19,208.19 0 0 0 -81.81,-16.6l-240.22,0.02z" fill="#fff" stroke="#333" stroke-miterlimit="10"/>
        <path d="m6430.66,3492.29l420,0l0,512.5l-420,0l0,-512.5zm-260,0l220,0l0,512.5l-220,0l0,-512.5z" fill="#fff" stroke="#333" stroke-miterlimit="10"/>
        <path d="m5258.47,2048.11l-0.05,-20l0,-20l0,-20l0,-20l0,-20l-0.05,-20l0,-20l0,-20l0,-20l0,-20l-0.05,-20l0,-20l0,-20l0,-20l-0.05,-20l0,-20l0,-20l0,-20l0,-20l-0.05,-20l0,-20l0,-20l0,-20l0,-20l-0.05,-20l0,-20l0,-20l0,-20l0,-20l-0.05,-20l0,-20l0,-20l0,-20l0,-20l473.54,0l-1,20l-1,20l-1,20l-1,20l-1,20l-1,20l-1,20l-1,20l-1,20l-1,20l-1,20l-1,20l-1,20l-1,20l-1,20l-1,20l-1,20l-1,20l-1,20l-1,20l-1,20l-1,20l-1,20l-1,20l-1,20l-1,20l-1,20l-1,20l-1,20l-1,20l-1,20l-1,20l-1,20l-1,20l-439.19,0z" fill="#fff" stroke="#333" stroke-miterlimit="10"/>
        <path d="m2035.41,3487.55l0,509.5l-680,0l0,-509.5l680,0z" fill="#fff" stroke="#333" stroke-miterlimit="10"/>
        <polygon points="3591.16 5562.11 3591.11 5542.11 3591.06 5522.11 3591.01 5502.11 3590.96 5482.11 3590.91 5462.11 3590.86 5442.11 3590.81 5422.11 3590.76 5402.11 3590.71 5382.11 3590.66 5362.11 3590.61 5342.11 3590.55 5322.11 3590.5 5302.11 3590.45 5282.11 3590.4 5262.11 3590.35 5242.11 3590.3 5222.11 3590.25 5202.11 3590.2 5182.11 3590.15 5162.11 3590.1 5142.11 3590.05 5122.11 3590 5102.11 3589.95 5082.11 3589.89 5062.11 3589.84 5042.11 3589.79 5022.11 3589.74 5002.11 3589.69 4982.11 3589.64 4962.11 3589.59 4942.11 3589.54 4922.11 3589.49 4902.11 3875.48 4902.11 3904.25 4902.11 4089.98 4902.11 4089.98 4922.11 4089.98 4942.11 4089.98 4962.11 4089.98 4982.11 4089.98 5002.11 4089.98 5022.11 4089.98 5042.11 4089.98 5062.11 4089.98 5082.11 4089.98 5102.11 4089.98 5122.11 4089.98 5142.11 4089.98 5162.11 4089.98 5182.11 4089.98 5202.11 4089.98 5222.11 4089.98 5242.11 4089.98 5262.11 4089.98 5282.11 4089.98 5302.11 4089.98 5322.11 4089.98 5342.11 4089.98 5362.11 4089.98 5382.11 4089.98 5402.11 4089.98 5422.11 4089.98 5442.11 4089.98 5462.11 4089.98 5482.11 4089.98 5502.11 4089.98 5522.11 4089.98 5542.11 4089.98 5562.11 4089.98 5582.11 3905.98 5582.11 3876.91 5582.11 3591.21 5582.11 3591.16 5562.11" fill="#fff" stroke="#333" stroke-miterlimit="10"/>
        <path d="m4115,1368.11l499,0l0,20l0,20l0.05,20l0,20l0,20l0,20l0,20l0.05,20l0,20l0,20l0,20l0,20l0.05,20l0,20l0,20l0,20l0,20l0.05,20l0,20l0,20l0,20l0,20l0.05,20l0,20l0,20l0,20l0,20l0.05,20l0,20l0,20l0,20l0.05,20l0,20l0,20l-499.35,0l0,-680z" fill="#fff" stroke="#333" stroke-miterlimit="10"/>
        <path d="m2973.49,2048.11l0,-20l0,-20l0,-20l0,-20l0,-20l0,-20l0,-20l0,-20l0,-20l0,-20l0,-20l0,-20l0,-20l0,-20l0,-20l0,-20l0,-20l0,-20l0.05,-20l0,-20l0,-20l0,-20l0,-20l0.05,-20l0,-20l0,-20l0,-20l0,-20l0.05,-20l0,-20l0,-20l0,-20l0.05,-20l0,-20l591,0l0,20l0,20l-0.05,20l0,20l0,20l0,20l-0.05,20l0,20l0,20l0,20l0,20l-0.05,20l0,20l0,20l0,20l0,20l-0.05,20l0,20l0,20l0,20l0,20l-0.05,20l0,20l0,20l0,20l0,20l0,20l0,20l0,20l0,20l0,20l0,20l0,20l0,20l-590.95,0z" fill="#fff" stroke="#333" stroke-miterlimit="10"/>
        <path d="m6190.66,4416.67l-20,-1.3l0,277.82a210,210 0 0 1 -6,49.92l226.26,158.38l0,-356.79l-0.27,0l0,-115l-20,-1.3l0,0l-20,-1.3l0,0l-20,-1.3l-20,-1.3l0,0l-20,-1.3l-20,-1.3l-20,-1.3l0,0l-20,-1.3l0,0l-20,-1.3l-19.99,-1.33zm523.8,711.33l0,0l-16.46,-11.56l0,0l-16.45,-11.52l0,0l-16.46,-11.52l0,0l-16.46,-11.52l0,0l-16.46,-11.53l0,0l-16.48,-11.53c1,-1.84 2,-3.7 3.05,-5.54c-1,1.84 -2,3.7 -3.05,5.54l-16.48,-11.53l0,0l-16.47,-11.53l-16.48,-11.53l0,0l-45.95,-32.16l12.95,9l-16.5,-11.55l0,0l-86.83,-60.78l0,-378l0.73,0.11l20,3.17l20,3.17l0,0l20,3.17l20,3.17l20,3.17l0,0l20,3.17l20,3.17l20,3.17l0,0l20,3.17l20,3.17l20,3.17l0,0l20,3.17l20,3.17l20,3.17l0,0l20,3.17l20,3.17l20,3.17l0,0l20,3.17l20,3.17l20,3.17l0,0l20,3.17l0,75.77c0,159.3 -41.63,312.2 -119.74,446.28l-16.46,-11.47z" fill="#fff" stroke="#333" stroke-miterlimit="10"/>
        <path d="m6717.87,1793.13l-331.39,232.43l-144,-164l243,-319a900.8,900.8 0 0 1 104.81,89.89q12.81,12.81 25,26.06l-4.51,4.29l17.25,18.1l4,-3.78a890.28,890.28 0 0 1 85.84,116.01z" fill="#fff" stroke="#333" stroke-miterlimit="10"/>
        <path d="m5233.47,4902.11l-0.05,20l0,20l0,20l0,20l0,20l-0.05,20l0,20l0,20l0,20l0,20l-0.05,20l0,20l0,20l0,20l-0.05,20l0,20l0,20l0,20l0,20l-0.05,20l0,20l0,20l0,20l0,20l-0.05,20l0,20l0,20l0,20l0,20l-0.05,20l0,20l0,20l0,20l-0.05,20l-594.07,0l0,-20l0,-20l0.05,-20l0,-20l0,-20l0,-20l0,-20l0.05,-20l0,-20l0,-20l0,-20l0,-20l0.05,-20l0,-20l0,-20l0,-20l0,-20l0.05,-20l0,-20l0,-20l0,-20l0,-20l0.05,-20l0,-20l0,-20l0,-20l0.05,-20l0,-20l0,-20l0,-20l0,-20l0.05,-20l0,-20l0,-20l594.12,0z" fill="#fff" stroke="#333" stroke-miterlimit="10"/>
        <path d="m2035.41,2940.05l0,522.5l-680,0l0,-522.5l680,0z" fill="#fff" stroke="#333" stroke-miterlimit="10"/>
        <path d="m6430.66,4029.79l420,0l0,567.1l-20,-3.16l-20,-3.17l-20,-3.17l-20,-3.16l-20,-3.17l-20,-3.17l-20,-3.16l-20,-3.17l-20,-3.17l-20,-3.16l-20,-3.17l-20,-3.17l-20,-3.16l-20,-3.17l-20,-3.17l-20,-3.16l-20,-3.17l-20,-3.17l-20,-3.16l-20,-3.17l-20,-3.17l0,-500.6zm-259.91,-0.05l220,0l-0.18,379.63l-20,-1.31l-20,-1.31l-20,-1.31l-20,-1.31l-20,-1.31l-20,-1.31l-20,-1.32l-20,-1.31l-20,-1.31l-20,-1.31l-20,-1.31l0.18,-365.21z" fill="#fff" stroke="#333" stroke-miterlimit="10"/>
        <path d="m3591.21,1368.11l498.79,0l0,680l-500.51,0l0.05,-20l0.05,-20l0,-20l0.05,-20l0,-20l0.05,-20l0.05,-20l0,-20l0.06,-20l0.05,-20l0.05,-20l0,-20l0.05,-20l0,-20l0.05,-20l0.05,-20l0,-20l0.05,-20l0,-20l0.05,-20l0.05,-20l0.06,-20l0,-20l0.05,-20l0.05,-20l0,-20l0.05,-20l0,-20l0.05,-20l0.05,-20l0,-20l0.05,-20l0,-20l0.65,-20z" fill="#fff" stroke="#333" stroke-miterlimit="10"/>
        <polygon points="4114.98 5562.11 4114.98 5542.11 4114.98 5522.11 4114.98 5502.11 4114.98 5482.11 4114.98 5462.11 4114.98 5442.11 4114.98 5422.11 4114.98 5402.11 4114.98 5382.11 4114.98 5362.11 4114.98 5342.11 4114.98 5322.11 4114.98 5302.11 4114.98 5282.11 4114.98 5262.11 4114.98 5242.11 4114.98 5222.11 4114.98 5202.11 4114.98 5182.11 4114.98 5162.11 4114.98 5142.11 4114.98 5122.11 4114.98 5102.11 4114.98 5082.11 4114.98 5062.11 4114.98 5042.11 4114.98 5022.11 4114.98 5002.11 4114.98 4982.11 4114.98 4962.11 4114.98 4942.11 4114.98 4922.11 4114.98 4902.11 4355.48 4902.11 4386.98 4902.11 4615.46 4902.11 4615.42 4922.11 4615.38 4942.11 4615.33 4962.11 4615.29 4982.11 4615.25 5002.11 4615.21 5022.11 4615.16 5042.11 4615.12 5062.11 4615.08 5082.11 4615.04 5102.11 4615 5122.11 4614.95 5142.11 4614.91 5162.11 4614.87 5182.11 4614.83 5202.11 4614.79 5222.11 4614.74 5242.11 4614.7 5262.11 4614.66 5282.11 4614.62 5302.11 4614.58 5322.11 4614.53 5342.11 4614.49 5362.11 4614.45 5382.11 4614.41 5402.11 4614.37 5422.11 4614.32 5442.11 4614.28 5462.11 4614.24 5482.11 4614.2 5502.11 4614.15 5522.11 4614.11 5542.11 4614.07 5562.11 4614.03 5582.11 4385.17 5582.11 4354.05 5582.11 4114.98 5582.11 4114.98 5562.11" fill="#fff" stroke="#333" stroke-miterlimit="10"/>
        <path d="m5257,5582l0,-20l0.05,-20l0,-20l0,-20l0,-20l0,-20l0.05,-20l0,-20l0,-20l0,-20l0,-20l0.05,-20l0,-20l0,-20l0,-20l0,-20l0.05,-20l0,-20l0,-20l0,-20l0.05,-20l0,-20l0,-20l0,-20l0,-20l0.05,-20l0,-20l0,-20l0,-20l0,-20l0.05,-20l0,-20l0,-20l0,-20l438.72,0l1,20l1,20l1,20l1,20l1,20l1,20l1,20l1,20l1,20l1,20l1,20l1,20l1,20l1,20l1,20l1,20l1,20l1,20l1,20l1,20l1,20l1,20l1,20l1,20l1,20l1,20l1,20l1,20l1,20l1,20l1,20l1,20l1,20l1,20l-473.07,0z" fill="#fff" stroke="#333" stroke-miterlimit="10"/>
        <path d="m6430.66,2954.79l420,0l0,512.5l-420,0l0,-512.5zm-260,0l220,0l0,512.5l-220,0l0,-512.5z" fill="#fff" stroke="#333" stroke-miterlimit="10"/>
        <path d="m2035.41,4022.05l0,456.27l-20,1.88l-20,1.88l-20,1.88l-20,1.88l-20,1.88l-20,1.88l-20,1.88l-20,1.88l-20,1.88l-20,1.88l-20,1.87l-20,1.88l-20,1.88l-20,1.88l-20,1.88l-20,1.88l-20,1.88l-20,1.88l-20,1.88l-20,1.88l-20,1.88l-20,1.88l-20,1.87l-20,1.88l-20,1.88l-20,1.88l-20,1.88l-20,1.88l-20,1.88l-20,1.88l-20,1.88l-20,1.88l-20,1.88l-20,1.88l0,-520.17l680,0z" fill="#fff" stroke="#333" stroke-miterlimit="10"/>
        <path d="m5756.27,5582l-1,-20l-1,-20l-1,-20l-1,-20l-1,-20l-1,-20l-1,-20l-1,-20l-1,-20l-1,-20l-1,-20l-1,-20l-1,-20l-1,-20l-1,-20l-1,-20l-1,-20l-1,-20l-1,-20l-1,-20l-1,-20l-1,-20l-1,-20l-1,-20l-1,-20l-1,-20l-1,-20l-1,-20l-1,-20l-1,-20l-1,-20l-1,-20l-1,-20l-1,-20l239.57,0a208,208 0 0 0 89.2,-19.9l12.35,16.24l12.32,16.18l12.3,16.16l12.26,16.1l12.25,16.09l12.23,16.07l12.21,16l12.21,16l12.21,16l12.18,16l12.19,16l12.17,16l12.17,16l12.17,16l12.16,16l12.16,16l12.15,16l12.16,16l12.15,16l12.14,15.95l12.15,16l12.14,15.95l12.15,16l12.14,15.95l12.14,15.94l12.13,15.95l12.14,15.94l12.13,15.94l12.14,15.94l12.13,16l12.14,15.94l12.13,15.94l12.13,15.94l12.13,15.93c-147,101.18 -320.97,155.75 -503.31,155.75l-205.52,0z" fill="#fff" stroke="#333" stroke-miterlimit="10"/>
        <path d="m2948.57,4942.11l0,20l0,20l0,20l0,20l0,20l0,20l0,20l0,20l0,20l0,20l0,20l0,20l0,20l0,20l0,20l0,20l0.05,20l0,20l0,20l0,20l0,20l0.05,20l0,20l0,20l0,20l0,20l0.05,20l0,20l0,20l0,20l0.05,20l0,20l-473.4,0l1,-20l1,-20l1,-20l1,-20l1,-20l1,-20l1,-20l1,-20l1,-20l1,-20l1,-20l1,-20l1,-20l1,-20l1,-20l1,-20l1,-20l1,-20l1,-20l1,-20l1,-20l1,-20l1,-20l1,-20l1,-20l1,-20l1,-20l1,-20l1,-20l1,-20l1,-20l1,-20l1,-20l1,-20l439.07,0l0,20l0.13,20z" fill="#fff" stroke="#333" stroke-miterlimit="10"/>
        <path d="m3564.49,4902.11l0,20l0,20l0,20l0,20l0,20l0,20l0,20l0,20l0,20l0,20l0,20l0,20l0.05,20l0,20l0,20l0,20l0,20l0.05,20l0,20l0,20l0,20l0,20l0.05,20l0,20l0,20l0,20l0,20l0.05,20l0,20l0,20l0,20l0.05,20l0,20l0,20l-591,0l0,-20l-0.05,-20l0,-20l0,-20l0,-20l-0.05,-20l0,-20l0,-20l0,-20l0,-20l-0.05,-20l0,-20l0,-20l0,-20l0,-20l-0.05,-20l0,-20l0,-20l0,-20l0,-20l0,-20l0,-20l0,-20l0,-20l0,-20l0,-20l0,-20l0,-20l0,-20l0,-20l0,-20l0,-20l0,-20l0,-20l590.95,0z" fill="#fff" stroke="#333" stroke-miterlimit="10"/>
        <text text-anchor="middle" x="5732.62036" y="5742" font-size="60px">238区</text>
        <text text-anchor="middle" x="6192.61499" y="5704.18506" font-size="60px">237区</text>
        <text text-anchor="middle" x="5246.29028" y="5742" font-size="60px">239区</text>
        <text text-anchor="middle" x="1975.05981" y="5689.89502" font-size="60px">208区</text>
        <text text-anchor="middle" x="5246.18994" y="1208.10999" font-size="60px">224区</text>
        <text text-anchor="middle" x="1525.89026" y="5451.94409" font-size="60px">209区</text>
        <text text-anchor="middle" x="7010.54004" y="3206.30005" font-size="60px">231区</text>
        <text text-anchor="middle" x="6994.83496" y="2177.26935" font-size="60px">229区</text>
        <text text-anchor="middle" x="4102.97498" y="5742" font-size="60px">主席台</text>
        <text text-anchor="middle" x="1975.10016" y="1260.44513" font-size="60px">217区</text>
        <text text-anchor="middle" x="6192.61548" y="1245.67499" font-size="60px">226区</text>
        <text text-anchor="middle" x="3390.39735" y="5742" font-size="60px">205区</text>
        <text text-anchor="middle" x="5732.82007" y="1208.10999" font-size="60px">225区</text>
        <text text-anchor="middle" x="3397.0293" y="1225.71909" font-size="60px">220区</text>
        <text text-anchor="middle" x="6870.98535" y="1735.6499" font-size="60px">228区</text>
        <text text-anchor="middle" x="1195.42004" y="3742.30005" font-size="60px">212区</text>
        <text text-anchor="middle" x="2959.82996" y="5742" font-size="60px">206区</text>
        <text text-anchor="middle" x="6994.8103" y="4772.82983" font-size="60px">234区</text>
        <text text-anchor="middle" x="7010.54004" y="4278.6274" font-size="60px">233区</text>
        <text text-anchor="middle" x="6572.01539" y="5560.7806" font-size="60px">236区</text>
        <text text-anchor="middle" x="6871" y="5214.45508" font-size="60px">235区</text>
        <text text-anchor="middle" x="2959.67053" y="1208.10999" font-size="60px">219区</text>
        <text text-anchor="middle" x="2473.43542" y="5741.99023" font-size="60px">207区</text>
        <text text-anchor="middle" x="4348.23999" y="1208.10999" font-size="60px">222区</text>
        <text text-anchor="middle" x="7010.54004" y="2674.34485" font-size="60px">230区</text>
        <text text-anchor="middle" x="4813.95508" y="5742" font-size="60px">240区</text>
        <text text-anchor="middle" x="1195.42004" y="3201.30005" font-size="60px">213区</text>
        <text text-anchor="middle" x="1195.42004" y="2656.81506" font-size="60px">214区</text>
        <text text-anchor="middle" x="2473.51465" y="1208.10999" font-size="60px">218区</text>
        <text text-anchor="middle" x="1515.0193" y="2146.6492" font-size="60px">215区</text>
        <text text-anchor="middle" x="3857.2395" y="1208.10999" font-size="60px">221区</text>
        <text text-anchor="middle" x="1523.41297" y="4849.21678" font-size="60px">210区</text>
        <text text-anchor="middle" x="1195.42004" y="4295.29944" font-size="60px">211区</text>
        <text text-anchor="middle" x="4796.9502" y="1208.10999" font-size="60px">223区</text>
        <text text-anchor="middle" x="1522" y="1504.12006" font-size="60px">216区</text>
        <text text-anchor="middle" x="7010.54004" y="3743.80005" font-size="60px">232区</text>
        <text text-anchor="middle" x="6584.875" y="1409.49536" font-size="60px">227区</text>
        <text text-anchor="middle" x="6924.60449" y="1309.80511" font-size="60px">S50</text>
        <text text-anchor="middle" x="6703.91992" y="1128.14008" font-size="60px">S48</text>
        <text text-anchor="middle" x="2695.61511" y="6042" font-size="60px">S05</text>
        <text text-anchor="middle" x="7106.83521" y="1540.50006" font-size="60px">S52</text>
        <text text-anchor="middle" x="6038.85498" y="911.24005" font-size="60px">S42</text>
        <text text-anchor="middle" x="6818.30981" y="5736.43481" font-size="60px">S63</text>
        <text text-anchor="middle" x="6459.5752" y="1001.13007" font-size="60px">S46</text>
        <text text-anchor="middle" x="6186.51001" y="926.91501" font-size="60px">S43</text>
        <text text-anchor="middle" x="1594.07996" y="5879.95166" font-size="60px">S11</text>
        <text text-anchor="middle" x="7310.54004" y="3997.5498" font-size="60px">07</text>
        <text text-anchor="middle" x="4996.85547" y="908.10999" font-size="60px">S38</text>
        <text text-anchor="middle" x="1851.15991" y="5984.43042" font-size="60px">S09</text>
        <text text-anchor="middle" x="7306.23975" y="2206.33496" font-size="60px">S56</text>
        <text text-anchor="middle" x="5284.33008" y="908.10999" font-size="60px">S39</text>
        <text text-anchor="middle" x="4713" y="6043" font-size="60px">S76S</text>
        <text text-anchor="middle" x="7310.54004" y="2952.55005" font-size="60px">03</text>
        <text text-anchor="middle" x="1594.05994" y="1070.1499" font-size="60px">S22</text>
        <text text-anchor="middle" x="1481.66486" y="1145.04004" font-size="60px">S21</text>
        <text text-anchor="middle" x="1851.15997" y="965.71005" font-size="60px">S25</text>
        <text text-anchor="middle" x="1725.41498" y="1011.23499" font-size="60px">S23</text>
        <text text-anchor="middle" x="4102.97559" y="908.10999" font-size="60px">S35</text>
        <text text-anchor="middle" x="2959.57507" y="908.10999" font-size="60px">S30</text>
        <text text-anchor="middle" x="7310.54004" y="2693.55005" font-size="60px">02</text>
        <text text-anchor="middle" x="7310.54004" y="2448.05005" font-size="60px">01</text>
        <text text-anchor="middle" x="5839.61572" y="6042" font-size="60px">S71</text>
        <text text-anchor="middle" x="3548.45496" y="6042" font-size="60px">S02</text>
        <text text-anchor="middle" x="2197.09509" y="912.60001" font-size="60px">S27</text>
        <text text-anchor="middle" x="6584.78003" y="5891.5647" font-size="60px">S66</text>
        <text text-anchor="middle" x="3791.6051" y="908.10999" font-size="60px">S33</text>
        <text text-anchor="middle" x="2443.6051" y="908.10999" font-size="60px">S28</text>
        <text text-anchor="middle" x="6584.87988" y="1058.53494" font-size="60px">S47</text>
        <text text-anchor="middle" x="4704.36011" y="908.10999" font-size="60px">S37</text>
        <text text-anchor="middle" x="7310.54004" y="3213.05005" font-size="60px">04</text>
        <text text-anchor="middle" x="7275.2854" y="1960.50989" font-size="60px">S55</text>
        <text text-anchor="middle" x="7310.54004" y="4256.5498" font-size="60px">08</text>
        <text text-anchor="middle" x="7310.54004" y="3737.05005" font-size="60px">06</text>
        <text text-anchor="middle" x="3215.1051" y="908.10999" font-size="60px">S31</text>
        <text text-anchor="middle" x="1991.07996" y="931.71985" font-size="60px">S26</text>
        <text text-anchor="middle" x="7019.85425" y="1417.8999" font-size="60px">S51</text>
        <text text-anchor="middle" x="6325.93433" y="957.14496" font-size="60px">S45</text>
        <text text-anchor="middle" x="1275.30505" y="5635.46997" font-size="60px">S16</text>
        <text text-anchor="middle" x="1152.91492" y="5489.79028" font-size="60px">S17</text>
        <text text-anchor="middle" x="4350.68088" y="6050.7072" font-size="60px">S76</text>
        <text text-anchor="middle" x="3961.55347" y="6040.23535" font-size="60px">S01</text>
        <text text-anchor="middle" x="5571.79004" y="908.10999" font-size="60px">S40</text>
        <text text-anchor="middle" x="5001.82568" y="6042" font-size="60px">S75</text>
        <text text-anchor="middle" x="1378.1402" y="5727.65967" font-size="60px">S15</text>
        <text text-anchor="middle" x="5839.60449" y="908.10999" font-size="60px">S41</text>
        <text text-anchor="middle" x="2959.61511" y="6042" font-size="60px">S03</text>
        <text text-anchor="middle" x="1481.66486" y="5805.05981" font-size="60px">S12</text>
        <text text-anchor="middle" x="4414.33496" y="908.10999" font-size="60px">S36</text>
        <text text-anchor="middle" x="6924.60498" y="5640.3252" font-size="60px">S62</text>
        <text text-anchor="middle" x="1378.13495" y="1222.30005" font-size="60px">S20</text>
        <text text-anchor="middle" x="7196.97888" y="5247.32435" font-size="60px">S59</text>
        <text text-anchor="middle" x="7019.85522" y="5532.1499" font-size="60px">S61</text>
        <text text-anchor="middle" x="6704.00513" y="5821.95459" font-size="60px">S65</text>
        <text text-anchor="middle" x="1275.27515" y="1314.63" font-size="60px">S19</text>
        <text text-anchor="middle" x="1152.91003" y="1460.32996" font-size="60px">S18</text>
        <text text-anchor="middle" x="3496.59998" y="908.10999" font-size="60px">S32</text>
        <text text-anchor="middle" x="2695.6051" y="908.10999" font-size="60px">S29</text>
        <text text-anchor="middle" x="7310.54004" y="3475.05005" font-size="60px">05</text>
        <text text-anchor="middle" x="6818.29517" y="1213.65497" font-size="60px">S49</text>
        <text text-anchor="middle" x="1991.07996" y="6018.40039" font-size="60px">S08</text>
        <text text-anchor="middle" x="1725.41492" y="5938.86499" font-size="60px">S10</text>
        <text text-anchor="middle" x="7306.24023" y="4743.75024" font-size="60px">S57</text>
        <text text-anchor="middle" x="7275.25488" y="4989.58496" font-size="60px">S58</text>
        <text text-anchor="middle" x="2197.09497" y="6037.47949" font-size="60px">S07</text>
        <text text-anchor="middle" x="5576.30566" y="6042" font-size="60px">S72</text>
        <text text-anchor="middle" x="5288.81494" y="6042" font-size="60px">S73</text>
        <text text-anchor="middle" x="6186.51025" y="6023.19995" font-size="60px">S69</text>
        <text text-anchor="middle" x="6038.84009" y="6038.8501" font-size="60px">S70</text>
        <text text-anchor="middle" x="7106.83984" y="5409.56958" font-size="60px">S60</text>
        <text text-anchor="middle" x="6325.93506" y="5992.94507" font-size="60px">S68</text>
        <text text-anchor="middle" x="7199.41992" y="1719.875" font-size="60px">S53</text>
        <text text-anchor="middle" x="7310.54004" y="4502.0498" font-size="60px">09</text>
        <text text-anchor="middle" x="6459.58496" y="5948.93506" font-size="60px">S67</text>
        <text text-anchor="middle" x="2443.61511" y="6042" font-size="60px">S06</text>
        <text text-anchor="middle" x="5957.9314" y="6436.78491" font-size="60px">338区</text>
        <text text-anchor="middle" x="7108.39966" y="6056.29004" font-size="60px">336区</text>
        <text text-anchor="middle" x="6532.40698" y="6346.69507" font-size="60px">337区</text>
        <text text-anchor="middle" x="7687.15942" y="4864.0498" font-size="60px">334区</text>
        <text text-anchor="middle" x="7515.65991" y="5524.87646" font-size="60px">335区</text>
        <text text-anchor="middle" x="4380.25" y="6442" font-size="60px">301区</text>
        <text text-anchor="middle" x="5407.62012" y="6442" font-size="60px">339区</text>
        <text text-anchor="middle" x="4380.23999" y="508.11" font-size="60px">322区</text>
        <text text-anchor="middle" x="3303.5" y="508.11" font-size="60px">320区</text>
        <text text-anchor="middle" x="4902.5" y="6442" font-size="60px">340区</text>
        <text text-anchor="middle" x="3825.75" y="508.11" font-size="60px">321区</text>
        <text text-anchor="middle" x="2798.35999" y="508.11" font-size="60px">319区</text>
        <text text-anchor="middle" x="5407.62988" y="508.11" font-size="60px">324区</text>
        <text text-anchor="middle" x="2187.26062" y="520.82986" font-size="60px">318区</text>
        <text text-anchor="middle" x="5957.87988" y="513.30498" font-size="60px">325区</text>
        <text text-anchor="middle" x="975.94006" y="1027.00995" font-size="60px">316区</text>
        <text text-anchor="middle" x="4902.5" y="508.11" font-size="60px">323区</text>
        <text text-anchor="middle" x="1514.21515" y="651.73007" font-size="60px">317区</text>
        <text text-anchor="middle" x="7710.54004" y="3744.05005" font-size="60px">332区</text>
        <text text-anchor="middle" x="7710.54004" y="4245.5498" font-size="60px">333区</text>
        <text text-anchor="middle" x="3303.5" y="6442" font-size="60px">303区</text>
        <text text-anchor="middle" x="7710.54004" y="3206.05005" font-size="60px">331区</text>
        <text text-anchor="middle" x="2187.40991" y="6429.28076" font-size="60px">305区</text>
        <text text-anchor="middle" x="2798.35999" y="6442" font-size="60px">304区</text>
        <text text-anchor="middle" x="975.935" y="5923.1001" font-size="60px">307区</text>
        <text text-anchor="middle" x="1514.21545" y="6298.36597" font-size="60px">306区</text>
        <text text-anchor="middle" x="623.20973" y="4840.77979" font-size="60px">309区</text>
        <text text-anchor="middle" x="7687.14551" y="2147.33106" font-size="60px">329区</text>
        <text text-anchor="middle" x="725.88498" y="5357.31177" font-size="60px">308区</text>
        <text text-anchor="middle" x="7710.54004" y="2704.55005" font-size="60px">330区</text>
        <text text-anchor="middle" x="615.42004" y="3741.80005" font-size="60px">311区</text>
        <text text-anchor="middle" x="7108.43018" y="894.30002" font-size="60px">327区</text>
        <text text-anchor="middle" x="615.42004" y="4262.0498" font-size="60px">310区</text>
        <text text-anchor="middle" x="7515.65112" y="1425.24496" font-size="60px">328区</text>
        <text text-anchor="middle" x="615.42004" y="2688.05005" font-size="60px">313区</text>
        <text text-anchor="middle" x="3825.75" y="6442" font-size="60px">302区</text>
        <text text-anchor="middle" x="615.42004" y="3208.30005" font-size="60px">312区</text>
        <text text-anchor="middle" x="6532.40845" y="602.90001" font-size="60px">326区</text>
        <text text-anchor="middle" x="725.89999" y="1592.79541" font-size="60px">315区</text>
        <text text-anchor="middle" x="623.20969" y="2109.32001" font-size="60px">314区</text>
        <text text-anchor="middle" x="1737.14502" y="5159.56885" font-size="60px">106区</text>
        <text text-anchor="middle" x="2112.32037" y="5231.80933" font-size="60px">105区</text>
        <text text-anchor="middle" x="6423.78855" y="2703.21463" font-size="60px">122区</text>
        <text text-anchor="middle" x="4932.48025" y="1707.47404" font-size="60px">117区</text>
        <text text-anchor="middle" x="2712.69495" y="1708.10986" font-size="60px">113区</text>
        <text text-anchor="middle" x="6480.15991" y="5170.06055" font-size="60px">127区</text>
        <text text-anchor="middle" x="6447.86622" y="2237.16405" font-size="60px">121区</text>
        <text text-anchor="middle" x="1695.42004" y="2669.96997" font-size="60px">110区</text>
        <text text-anchor="middle" x="1737.16492" y="1794.56006" font-size="60px">111区</text>
        <text text-anchor="middle" x="2175.67388" y="1710.43058" font-size="60px">112区</text>
        <text text-anchor="middle" x="6018.27706" y="1710.42063" font-size="60px">119区</text>
        <text text-anchor="middle" x="6429.86446" y="3756.46112" font-size="60px">124区</text>
        <text text-anchor="middle" x="5494.8916" y="1708.11011" font-size="60px">118区</text>
        <text text-anchor="middle" x="1695.41003" y="3742.30005" font-size="60px">108区</text>
        <text text-anchor="middle" x="3831.94556" y="5233.12701" font-size="60px">102区</text>
        <text text-anchor="middle" x="4364.67432" y="1708.10986" font-size="60px">116区</text>
        <text text-anchor="middle" x="3269.09009" y="1708.11011" font-size="60px">114区</text>
        <text text-anchor="middle" x="6417.96901" y="4747.52271" font-size="60px">126区</text>
        <text text-anchor="middle" x="6480.17505" y="1784.06006" font-size="60px">120区</text>
        <text text-anchor="middle" x="4936.23511" y="5242.10986" font-size="60px">130区</text>
        <text text-anchor="middle" x="1695.41003" y="3201.30005" font-size="60px">109区</text>
        <text text-anchor="middle" x="6435.52704" y="4265.94259" font-size="60px">125区</text>
        <text text-anchor="middle" x="3839.745" y="1708.10992" font-size="60px">115区</text>
        <text text-anchor="middle" x="4336.45396" y="5229.86365" font-size="60px">101区</text>
        <text text-anchor="middle" x="5479.88801" y="5246.7713" font-size="60px">129区</text>
        <text text-anchor="middle" x="6414.98986" y="3228.97822" font-size="60px">123区</text>
        <text text-anchor="middle" x="1695.41003" y="4282.13318" font-size="60px">107区</text>
        <text text-anchor="middle" x="6009.9733" y="5255.96762" font-size="60px">128区</text>
        <text text-anchor="middle" x="2712.07019" y="5242.10986" font-size="60px">104区</text>
        <text text-anchor="middle" x="3269.14014" y="5242.10986" font-size="60px">103区</text>
    </g>
    
</svg>
